<mxfile host="app.diagrams.net" modified="2022-11-21T11:31:36.928Z" agent="5.0 (Windows NT 10.0; Win64; x64) AppleWebKit/537.36 (KHTML, like Gecko) Chrome/107.0.0.0 Safari/537.36" etag="Toap077gBX31OMzuvzjg" version="20.5.3" type="github" pages="6">
  <diagram id="sXCtTzlcqRcgmoZ-2-4a" name="Page-1">
    <mxGraphModel dx="1093" dy="576" grid="1" gridSize="10" guides="1" tooltips="1" connect="1" arrows="1" fold="1" page="1" pageScale="1" pageWidth="827" pageHeight="1169" math="0" shadow="0">
      <root>
        <mxCell id="0" />
        <mxCell id="1" parent="0" />
        <mxCell id="XJiAqea-rrS2IdnvYBFq-4" value="" style="strokeWidth=1;shadow=0;dashed=0;align=center;html=1;shape=mxgraph.mockup.containers.browserWindow;rSize=0;strokeColor=#666666;strokeColor2=#008cff;strokeColor3=#c4c4c4;mainText=,;recursiveResize=0;fillColor=#FFFFFF;" vertex="1" parent="1">
          <mxGeometry x="40" y="150" width="950" height="1040" as="geometry" />
        </mxCell>
        <mxCell id="XJiAqea-rrS2IdnvYBFq-5" value="" style="strokeWidth=1;shadow=0;dashed=0;align=center;html=1;shape=mxgraph.mockup.containers.anchor;fontSize=17;fontColor=#666666;align=left;" vertex="1" parent="XJiAqea-rrS2IdnvYBFq-4">
          <mxGeometry x="60" y="12" width="110" height="26" as="geometry" />
        </mxCell>
        <mxCell id="XJiAqea-rrS2IdnvYBFq-6" value="https://www.shipping.com" style="strokeWidth=1;shadow=0;dashed=0;align=center;html=1;shape=mxgraph.mockup.containers.anchor;rSize=0;fontSize=17;fontColor=#666666;align=left;" vertex="1" parent="XJiAqea-rrS2IdnvYBFq-4">
          <mxGeometry x="130" y="60" width="250" height="26" as="geometry" />
        </mxCell>
        <mxCell id="XJiAqea-rrS2IdnvYBFq-9" value="" style="dashed=0;outlineConnect=0;html=1;align=center;labelPosition=center;verticalLabelPosition=bottom;verticalAlign=top;shape=mxgraph.weblogos.skyrock;fillColor=#009AFF;strokeColor=none;labelBackgroundColor=#FFFFFF;" vertex="1" parent="XJiAqea-rrS2IdnvYBFq-4">
          <mxGeometry x="60" y="10" width="30" height="30" as="geometry" />
        </mxCell>
        <mxCell id="XJiAqea-rrS2IdnvYBFq-10" value="" style="whiteSpace=wrap;html=1;aspect=fixed;labelBackgroundColor=#FFFFFF;fillColor=#ffe6cc;strokeColor=#d79b00;" vertex="1" parent="XJiAqea-rrS2IdnvYBFq-4">
          <mxGeometry x="20" y="150" width="870" height="870" as="geometry" />
        </mxCell>
        <mxCell id="XJiAqea-rrS2IdnvYBFq-11" value="Requester Page" style="text;html=1;strokeColor=none;fillColor=none;align=center;verticalAlign=middle;whiteSpace=wrap;rounded=0;labelBackgroundColor=#FFFFFF;" vertex="1" parent="XJiAqea-rrS2IdnvYBFq-4">
          <mxGeometry x="400" y="230" width="90" height="30" as="geometry" />
        </mxCell>
        <mxCell id="XJiAqea-rrS2IdnvYBFq-15" value="" style="shape=ext;double=1;whiteSpace=wrap;html=1;aspect=fixed;labelBackgroundColor=#FFFFFF;fillColor=#d5e8d4;strokeColor=#82b366;" vertex="1" parent="XJiAqea-rrS2IdnvYBFq-4">
          <mxGeometry x="190" y="260" width="490" height="490" as="geometry" />
        </mxCell>
        <mxCell id="XJiAqea-rrS2IdnvYBFq-16" value="CREATE A PURCHASE REQUEST" style="rounded=1;whiteSpace=wrap;html=1;labelBackgroundColor=#FFFFFF;" vertex="1" parent="XJiAqea-rrS2IdnvYBFq-4">
          <mxGeometry x="372.5" y="290" width="145" height="30" as="geometry" />
        </mxCell>
        <mxCell id="XJiAqea-rrS2IdnvYBFq-17" value="" style="verticalLabelPosition=bottom;verticalAlign=top;html=1;shape=mxgraph.basic.patternFillRect;fillStyle=diag;step=5;fillStrokeWidth=0.2;fillStrokeColor=#dddddd;labelBackgroundColor=#FFFFFF;fillColor=#f5f5f5;fontColor=#333333;strokeColor=#666666;" vertex="1" parent="XJiAqea-rrS2IdnvYBFq-4">
          <mxGeometry x="460" y="360" width="120" height="20" as="geometry" />
        </mxCell>
        <mxCell id="XJiAqea-rrS2IdnvYBFq-18" value="Product Name" style="rounded=1;whiteSpace=wrap;html=1;labelBackgroundColor=#FFFFFF;" vertex="1" parent="XJiAqea-rrS2IdnvYBFq-4">
          <mxGeometry x="280" y="360" width="120" height="20" as="geometry" />
        </mxCell>
        <mxCell id="XJiAqea-rrS2IdnvYBFq-19" value="Specification 1" style="rounded=1;whiteSpace=wrap;html=1;labelBackgroundColor=#FFFFFF;" vertex="1" parent="XJiAqea-rrS2IdnvYBFq-4">
          <mxGeometry x="280" y="410" width="120" height="20" as="geometry" />
        </mxCell>
        <mxCell id="XJiAqea-rrS2IdnvYBFq-20" value="Specification 2" style="rounded=1;whiteSpace=wrap;html=1;labelBackgroundColor=#FFFFFF;" vertex="1" parent="XJiAqea-rrS2IdnvYBFq-4">
          <mxGeometry x="280" y="460" width="120" height="20" as="geometry" />
        </mxCell>
        <mxCell id="XJiAqea-rrS2IdnvYBFq-21" value="COST" style="rounded=1;whiteSpace=wrap;html=1;labelBackgroundColor=#FFFFFF;" vertex="1" parent="XJiAqea-rrS2IdnvYBFq-4">
          <mxGeometry x="280" y="510" width="120" height="20" as="geometry" />
        </mxCell>
        <mxCell id="XJiAqea-rrS2IdnvYBFq-22" value="" style="verticalLabelPosition=bottom;verticalAlign=top;html=1;shape=mxgraph.basic.patternFillRect;fillStyle=diag;step=5;fillStrokeWidth=0.2;fillStrokeColor=#dddddd;labelBackgroundColor=#FFFFFF;fillColor=#f5f5f5;fontColor=#333333;strokeColor=#666666;" vertex="1" parent="XJiAqea-rrS2IdnvYBFq-4">
          <mxGeometry x="460" y="410" width="120" height="20" as="geometry" />
        </mxCell>
        <mxCell id="XJiAqea-rrS2IdnvYBFq-23" value="" style="verticalLabelPosition=bottom;verticalAlign=top;html=1;shape=mxgraph.basic.patternFillRect;fillStyle=diag;step=5;fillStrokeWidth=0.2;fillStrokeColor=#dddddd;labelBackgroundColor=#FFFFFF;fillColor=#f5f5f5;fontColor=#333333;strokeColor=#666666;" vertex="1" parent="XJiAqea-rrS2IdnvYBFq-4">
          <mxGeometry x="460" y="460" width="120" height="20" as="geometry" />
        </mxCell>
        <mxCell id="XJiAqea-rrS2IdnvYBFq-24" value="" style="verticalLabelPosition=bottom;verticalAlign=top;html=1;shape=mxgraph.basic.patternFillRect;fillStyle=diag;step=5;fillStrokeWidth=0.2;fillStrokeColor=#dddddd;labelBackgroundColor=#FFFFFF;fillColor=#f5f5f5;fontColor=#333333;strokeColor=#666666;" vertex="1" parent="XJiAqea-rrS2IdnvYBFq-4">
          <mxGeometry x="460" y="510" width="120" height="20" as="geometry" />
        </mxCell>
        <mxCell id="XJiAqea-rrS2IdnvYBFq-25" value="submit request" style="labelPosition=center;verticalLabelPosition=middle;align=center;html=1;shape=mxgraph.basic.shaded_button;dx=10;fillColor=#d5e8d4;strokeColor=#82b366;whiteSpace=wrap;labelBackgroundColor=#FFFFFF;" vertex="1" parent="XJiAqea-rrS2IdnvYBFq-4">
          <mxGeometry x="395" y="610" width="100" height="40" as="geometry" />
        </mxCell>
        <mxCell id="XJiAqea-rrS2IdnvYBFq-26" value="" style="shape=image;html=1;verticalAlign=top;verticalLabelPosition=bottom;labelBackgroundColor=#ffffff;imageAspect=0;aspect=fixed;image=https://cdn3.iconfinder.com/data/icons/essential-rounded/64/Rounded-31-128.png;fillColor=#FFFFFF;" vertex="1" parent="XJiAqea-rrS2IdnvYBFq-4">
          <mxGeometry x="610" y="270" width="50" height="50" as="geometry" />
        </mxCell>
        <mxCell id="XJiAqea-rrS2IdnvYBFq-27" value="&lt;font face=&quot;Georgia&quot; style=&quot;font-size: 24px;&quot;&gt;&lt;i style=&quot;background-color: rgb(255, 206, 159);&quot;&gt;SHIPPING.COM&lt;/i&gt;&lt;/font&gt;" style="text;html=1;strokeColor=#FFCE9F;fillColor=#ffe6cc;align=center;verticalAlign=middle;whiteSpace=wrap;rounded=0;labelBackgroundColor=#FFFFFF;" vertex="1" parent="XJiAqea-rrS2IdnvYBFq-4">
          <mxGeometry x="175" y="180" width="560" height="30" as="geometry" />
        </mxCell>
      </root>
    </mxGraphModel>
  </diagram>
  <diagram id="f_Yk68XcJg7A7aQcPfCr" name="Page-2">
    <mxGraphModel dx="1038" dy="489" grid="1" gridSize="10" guides="1" tooltips="1" connect="1" arrows="1" fold="1" page="1" pageScale="1" pageWidth="827" pageHeight="1169" math="0" shadow="0">
      <root>
        <mxCell id="0" />
        <mxCell id="1" parent="0" />
        <mxCell id="Belz4QuVb9ZUMpBo2F6i-1" value="" style="strokeWidth=1;shadow=0;dashed=0;align=center;html=1;shape=mxgraph.mockup.containers.browserWindow;rSize=0;strokeColor=#666666;strokeColor2=#008cff;strokeColor3=#c4c4c4;mainText=,;recursiveResize=0;fillColor=#FFFFFF;" vertex="1" parent="1">
          <mxGeometry x="20" y="150" width="950" height="1040" as="geometry" />
        </mxCell>
        <mxCell id="Belz4QuVb9ZUMpBo2F6i-2" value="" style="strokeWidth=1;shadow=0;dashed=0;align=center;html=1;shape=mxgraph.mockup.containers.anchor;fontSize=17;fontColor=#666666;align=left;" vertex="1" parent="Belz4QuVb9ZUMpBo2F6i-1">
          <mxGeometry x="60" y="12" width="110" height="26" as="geometry" />
        </mxCell>
        <mxCell id="Belz4QuVb9ZUMpBo2F6i-3" value="https://www.shipping.com" style="strokeWidth=1;shadow=0;dashed=0;align=center;html=1;shape=mxgraph.mockup.containers.anchor;rSize=0;fontSize=17;fontColor=#666666;align=left;" vertex="1" parent="Belz4QuVb9ZUMpBo2F6i-1">
          <mxGeometry x="130" y="60" width="250" height="26" as="geometry" />
        </mxCell>
        <mxCell id="Belz4QuVb9ZUMpBo2F6i-4" value="" style="dashed=0;outlineConnect=0;html=1;align=center;labelPosition=center;verticalLabelPosition=bottom;verticalAlign=top;shape=mxgraph.weblogos.skyrock;fillColor=#009AFF;strokeColor=none;labelBackgroundColor=#FFFFFF;" vertex="1" parent="Belz4QuVb9ZUMpBo2F6i-1">
          <mxGeometry x="60" y="10" width="30" height="30" as="geometry" />
        </mxCell>
        <mxCell id="Belz4QuVb9ZUMpBo2F6i-5" value="" style="whiteSpace=wrap;html=1;aspect=fixed;labelBackgroundColor=#FFFFFF;fillColor=#FFE6CC;strokeColor=#d79b00;" vertex="1" parent="Belz4QuVb9ZUMpBo2F6i-1">
          <mxGeometry x="20" y="150" width="870" height="870" as="geometry" />
        </mxCell>
        <mxCell id="Belz4QuVb9ZUMpBo2F6i-6" value="Requester Page" style="text;html=1;strokeColor=none;fillColor=none;align=center;verticalAlign=middle;whiteSpace=wrap;rounded=0;labelBackgroundColor=#FFFFFF;" vertex="1" parent="Belz4QuVb9ZUMpBo2F6i-1">
          <mxGeometry x="400" y="230" width="90" height="30" as="geometry" />
        </mxCell>
        <mxCell id="Belz4QuVb9ZUMpBo2F6i-7" value="" style="shape=ext;double=1;whiteSpace=wrap;html=1;aspect=fixed;labelBackgroundColor=#FFFFFF;fillColor=#d5e8d4;strokeColor=#82b366;" vertex="1" parent="Belz4QuVb9ZUMpBo2F6i-1">
          <mxGeometry x="190" y="260" width="490" height="490" as="geometry" />
        </mxCell>
        <mxCell id="Belz4QuVb9ZUMpBo2F6i-8" value="CREATE A PURCHASE REQUEST" style="rounded=1;whiteSpace=wrap;html=1;labelBackgroundColor=#FFFFFF;" vertex="1" parent="Belz4QuVb9ZUMpBo2F6i-1">
          <mxGeometry x="372.5" y="290" width="145" height="30" as="geometry" />
        </mxCell>
        <mxCell id="Belz4QuVb9ZUMpBo2F6i-9" value="" style="verticalLabelPosition=bottom;verticalAlign=top;html=1;shape=mxgraph.basic.patternFillRect;fillStyle=diag;step=5;fillStrokeWidth=0.2;fillStrokeColor=#dddddd;labelBackgroundColor=#FFFFFF;fillColor=#f5f5f5;fontColor=#333333;strokeColor=#666666;" vertex="1" parent="Belz4QuVb9ZUMpBo2F6i-1">
          <mxGeometry x="460" y="360" width="120" height="20" as="geometry" />
        </mxCell>
        <mxCell id="Belz4QuVb9ZUMpBo2F6i-10" value="Product Name" style="rounded=1;whiteSpace=wrap;html=1;labelBackgroundColor=#FFFFFF;" vertex="1" parent="Belz4QuVb9ZUMpBo2F6i-1">
          <mxGeometry x="280" y="360" width="120" height="20" as="geometry" />
        </mxCell>
        <mxCell id="Belz4QuVb9ZUMpBo2F6i-11" value="Specification 1" style="rounded=1;whiteSpace=wrap;html=1;labelBackgroundColor=#FFFFFF;" vertex="1" parent="Belz4QuVb9ZUMpBo2F6i-1">
          <mxGeometry x="280" y="410" width="120" height="20" as="geometry" />
        </mxCell>
        <mxCell id="Belz4QuVb9ZUMpBo2F6i-12" value="Specification 2" style="rounded=1;whiteSpace=wrap;html=1;labelBackgroundColor=#FFFFFF;" vertex="1" parent="Belz4QuVb9ZUMpBo2F6i-1">
          <mxGeometry x="280" y="460" width="120" height="20" as="geometry" />
        </mxCell>
        <mxCell id="Belz4QuVb9ZUMpBo2F6i-13" value="COST" style="rounded=1;whiteSpace=wrap;html=1;labelBackgroundColor=#FFFFFF;" vertex="1" parent="Belz4QuVb9ZUMpBo2F6i-1">
          <mxGeometry x="280" y="510" width="120" height="20" as="geometry" />
        </mxCell>
        <mxCell id="Belz4QuVb9ZUMpBo2F6i-14" value="" style="verticalLabelPosition=bottom;verticalAlign=top;html=1;shape=mxgraph.basic.patternFillRect;fillStyle=diag;step=5;fillStrokeWidth=0.2;fillStrokeColor=#dddddd;labelBackgroundColor=#FFFFFF;fillColor=#f5f5f5;fontColor=#333333;strokeColor=#666666;" vertex="1" parent="Belz4QuVb9ZUMpBo2F6i-1">
          <mxGeometry x="460" y="410" width="120" height="20" as="geometry" />
        </mxCell>
        <mxCell id="Belz4QuVb9ZUMpBo2F6i-15" value="" style="verticalLabelPosition=bottom;verticalAlign=top;html=1;shape=mxgraph.basic.patternFillRect;fillStyle=diag;step=5;fillStrokeWidth=0.2;fillStrokeColor=#dddddd;labelBackgroundColor=#FFFFFF;fillColor=#f5f5f5;fontColor=#333333;strokeColor=#666666;" vertex="1" parent="Belz4QuVb9ZUMpBo2F6i-1">
          <mxGeometry x="460" y="460" width="120" height="20" as="geometry" />
        </mxCell>
        <mxCell id="Belz4QuVb9ZUMpBo2F6i-16" value="" style="verticalLabelPosition=bottom;verticalAlign=top;html=1;shape=mxgraph.basic.patternFillRect;fillStyle=diag;step=5;fillStrokeWidth=0.2;fillStrokeColor=#dddddd;labelBackgroundColor=#FFFFFF;fillColor=#f5f5f5;fontColor=#333333;strokeColor=#666666;" vertex="1" parent="Belz4QuVb9ZUMpBo2F6i-1">
          <mxGeometry x="460" y="510" width="120" height="20" as="geometry" />
        </mxCell>
        <mxCell id="Belz4QuVb9ZUMpBo2F6i-17" value="submit request" style="labelPosition=center;verticalLabelPosition=middle;align=center;html=1;shape=mxgraph.basic.shaded_button;dx=10;fillColor=#d5e8d4;strokeColor=#82b366;whiteSpace=wrap;labelBackgroundColor=#FFFFFF;" vertex="1" parent="Belz4QuVb9ZUMpBo2F6i-1">
          <mxGeometry x="395" y="610" width="100" height="40" as="geometry" />
        </mxCell>
        <mxCell id="Belz4QuVb9ZUMpBo2F6i-18" value="" style="shape=image;html=1;verticalAlign=top;verticalLabelPosition=bottom;labelBackgroundColor=#ffffff;imageAspect=0;aspect=fixed;image=https://cdn3.iconfinder.com/data/icons/essential-rounded/64/Rounded-31-128.png;fillColor=#FFFFFF;" vertex="1" parent="Belz4QuVb9ZUMpBo2F6i-1">
          <mxGeometry x="610" y="270" width="50" height="50" as="geometry" />
        </mxCell>
        <mxCell id="Belz4QuVb9ZUMpBo2F6i-19" value="&lt;font face=&quot;Georgia&quot; style=&quot;font-size: 24px;&quot;&gt;&lt;i style=&quot;background-color: rgb(255, 206, 159);&quot;&gt;SHIPPING.COM&lt;/i&gt;&lt;/font&gt;" style="text;html=1;strokeColor=#FFCE9F;fillColor=#ffe6cc;align=center;verticalAlign=middle;whiteSpace=wrap;rounded=0;labelBackgroundColor=#FFFFFF;" vertex="1" parent="Belz4QuVb9ZUMpBo2F6i-1">
          <mxGeometry x="175" y="180" width="560" height="30" as="geometry" />
        </mxCell>
        <mxCell id="Belz4QuVb9ZUMpBo2F6i-20" value="PURCHASE REQUEST ID" style="rounded=1;whiteSpace=wrap;html=1;labelBackgroundColor=#FFFFFF;" vertex="1" parent="Belz4QuVb9ZUMpBo2F6i-1">
          <mxGeometry x="265" y="550" width="150" height="20" as="geometry" />
        </mxCell>
        <mxCell id="Belz4QuVb9ZUMpBo2F6i-22" value="SYSTEM GENERATED" style="rounded=1;whiteSpace=wrap;html=1;labelBackgroundColor=#FFFFFF;" vertex="1" parent="Belz4QuVb9ZUMpBo2F6i-1">
          <mxGeometry x="450" y="550" width="140" height="20" as="geometry" />
        </mxCell>
      </root>
    </mxGraphModel>
  </diagram>
  <diagram id="YolGS265gEA8hkz6yF6f" name="Page-3">
    <mxGraphModel dx="1384" dy="652" grid="1" gridSize="10" guides="1" tooltips="1" connect="1" arrows="1" fold="1" page="1" pageScale="1" pageWidth="827" pageHeight="1169" math="0" shadow="0">
      <root>
        <mxCell id="0" />
        <mxCell id="1" parent="0" />
        <mxCell id="TE7vmhAAbaG0M19s3-n8-24" value="" style="strokeWidth=1;shadow=0;dashed=0;align=center;html=1;shape=mxgraph.mockup.containers.browserWindow;rSize=0;strokeColor=#666666;strokeColor2=#008cff;strokeColor3=#c4c4c4;mainText=,;recursiveResize=0;fillColor=#FFFFFF;" vertex="1" parent="1">
          <mxGeometry x="110" y="160" width="990" height="1040" as="geometry" />
        </mxCell>
        <mxCell id="TE7vmhAAbaG0M19s3-n8-25" value="" style="strokeWidth=1;shadow=0;dashed=0;align=center;html=1;shape=mxgraph.mockup.containers.anchor;fontSize=17;fontColor=#666666;align=left;" vertex="1" parent="TE7vmhAAbaG0M19s3-n8-24">
          <mxGeometry x="60" y="12" width="110" height="26" as="geometry" />
        </mxCell>
        <mxCell id="TE7vmhAAbaG0M19s3-n8-26" value="https://www.shipping.com" style="strokeWidth=1;shadow=0;dashed=0;align=center;html=1;shape=mxgraph.mockup.containers.anchor;rSize=0;fontSize=17;fontColor=#666666;align=left;" vertex="1" parent="TE7vmhAAbaG0M19s3-n8-24">
          <mxGeometry x="130" y="60" width="250" height="26" as="geometry" />
        </mxCell>
        <mxCell id="TE7vmhAAbaG0M19s3-n8-27" value="" style="dashed=0;outlineConnect=0;html=1;align=center;labelPosition=center;verticalLabelPosition=bottom;verticalAlign=top;shape=mxgraph.weblogos.skyrock;fillColor=#009AFF;strokeColor=none;labelBackgroundColor=#FFFFFF;" vertex="1" parent="TE7vmhAAbaG0M19s3-n8-24">
          <mxGeometry x="60" y="10" width="30" height="30" as="geometry" />
        </mxCell>
        <mxCell id="TE7vmhAAbaG0M19s3-n8-28" value="" style="whiteSpace=wrap;html=1;aspect=fixed;labelBackgroundColor=#FFFFFF;fillColor=#dae8fc;strokeColor=#6c8ebf;gradientColor=#7ea6e0;" vertex="1" parent="TE7vmhAAbaG0M19s3-n8-24">
          <mxGeometry x="20" y="150" width="870" height="870" as="geometry" />
        </mxCell>
        <mxCell id="TE7vmhAAbaG0M19s3-n8-29" value="&lt;span style=&quot;background-color: rgb(255, 230, 204);&quot;&gt;AS A LEVEL1 MANAGER&lt;/span&gt;" style="text;html=1;strokeColor=#d79b00;fillColor=#ffe6cc;align=center;verticalAlign=middle;whiteSpace=wrap;rounded=0;labelBackgroundColor=#FFFFFF;" vertex="1" parent="TE7vmhAAbaG0M19s3-n8-24">
          <mxGeometry x="400" y="230" width="110" height="30" as="geometry" />
        </mxCell>
        <mxCell id="TE7vmhAAbaG0M19s3-n8-30" value="" style="shape=ext;double=1;whiteSpace=wrap;html=1;aspect=fixed;labelBackgroundColor=#FFFFFF;fillColor=#d5e8d4;strokeColor=#82b366;gradientColor=#97d077;" vertex="1" parent="TE7vmhAAbaG0M19s3-n8-24">
          <mxGeometry x="190" y="260" width="490" height="490" as="geometry" />
        </mxCell>
        <mxCell id="TE7vmhAAbaG0M19s3-n8-31" value="CREATE A PURCHASE REQUEST" style="rounded=1;whiteSpace=wrap;html=1;labelBackgroundColor=#FFFFFF;" vertex="1" parent="TE7vmhAAbaG0M19s3-n8-24">
          <mxGeometry x="372.5" y="290" width="145" height="30" as="geometry" />
        </mxCell>
        <mxCell id="TE7vmhAAbaG0M19s3-n8-32" value="Purchase request" style="rounded=1;whiteSpace=wrap;html=1;labelBackgroundColor=#FFFFFF;" vertex="1" parent="TE7vmhAAbaG0M19s3-n8-24">
          <mxGeometry x="280" y="360" width="120" height="20" as="geometry" />
        </mxCell>
        <mxCell id="TE7vmhAAbaG0M19s3-n8-33" value="PR form" style="rounded=1;whiteSpace=wrap;html=1;labelBackgroundColor=#FFFFFF;" vertex="1" parent="TE7vmhAAbaG0M19s3-n8-24">
          <mxGeometry x="280" y="410" width="120" height="20" as="geometry" />
        </mxCell>
        <mxCell id="TE7vmhAAbaG0M19s3-n8-34" value="cost" style="rounded=1;whiteSpace=wrap;html=1;labelBackgroundColor=#FFFFFF;" vertex="1" parent="TE7vmhAAbaG0M19s3-n8-24">
          <mxGeometry x="280" y="460" width="120" height="20" as="geometry" />
        </mxCell>
        <mxCell id="TE7vmhAAbaG0M19s3-n8-35" value="benchmark value" style="rounded=1;whiteSpace=wrap;html=1;labelBackgroundColor=#FFFFFF;" vertex="1" parent="TE7vmhAAbaG0M19s3-n8-24">
          <mxGeometry x="280" y="510" width="120" height="20" as="geometry" />
        </mxCell>
        <mxCell id="TE7vmhAAbaG0M19s3-n8-36" value="" style="verticalLabelPosition=bottom;verticalAlign=top;html=1;shape=mxgraph.basic.patternFillRect;fillStyle=diag;step=5;fillStrokeWidth=0.2;fillStrokeColor=#dddddd;labelBackgroundColor=#FFFFFF;fillColor=#f5f5f5;fontColor=#333333;strokeColor=#666666;" vertex="1" parent="TE7vmhAAbaG0M19s3-n8-24">
          <mxGeometry x="460" y="460" width="120" height="20" as="geometry" />
        </mxCell>
        <mxCell id="TE7vmhAAbaG0M19s3-n8-37" value="submit request" style="labelPosition=center;verticalLabelPosition=middle;align=center;html=1;shape=mxgraph.basic.shaded_button;dx=10;fillColor=#d5e8d4;strokeColor=#82b366;whiteSpace=wrap;labelBackgroundColor=#FFFFFF;" vertex="1" parent="TE7vmhAAbaG0M19s3-n8-24">
          <mxGeometry x="395" y="610" width="100" height="40" as="geometry" />
        </mxCell>
        <mxCell id="TE7vmhAAbaG0M19s3-n8-38" value="" style="shape=image;html=1;verticalAlign=top;verticalLabelPosition=bottom;labelBackgroundColor=#ffffff;imageAspect=0;aspect=fixed;image=https://cdn3.iconfinder.com/data/icons/essential-rounded/64/Rounded-31-128.png;fillColor=#FFFFFF;" vertex="1" parent="TE7vmhAAbaG0M19s3-n8-24">
          <mxGeometry x="610" y="270" width="50" height="50" as="geometry" />
        </mxCell>
        <mxCell id="TE7vmhAAbaG0M19s3-n8-39" value="&lt;font face=&quot;Georgia&quot; style=&quot;font-size: 24px;&quot;&gt;&lt;i style=&quot;background-color: rgb(255, 255, 255);&quot;&gt;SHIPPING.COM&lt;/i&gt;&lt;/font&gt;" style="text;html=1;strokeColor=#b85450;fillColor=#f8cecc;align=center;verticalAlign=middle;whiteSpace=wrap;rounded=0;labelBackgroundColor=#FFFFFF;gradientColor=#ea6b66;" vertex="1" parent="TE7vmhAAbaG0M19s3-n8-24">
          <mxGeometry x="175" y="180" width="560" height="30" as="geometry" />
        </mxCell>
        <mxCell id="TE7vmhAAbaG0M19s3-n8-40" value="PURCHASE REQUEST ID" style="rounded=1;whiteSpace=wrap;html=1;labelBackgroundColor=#FFFFFF;" vertex="1" parent="TE7vmhAAbaG0M19s3-n8-24">
          <mxGeometry x="265" y="550" width="150" height="20" as="geometry" />
        </mxCell>
        <mxCell id="TE7vmhAAbaG0M19s3-n8-41" value="SYSTEM GENERATED" style="rounded=1;whiteSpace=wrap;html=1;labelBackgroundColor=#FFFFFF;" vertex="1" parent="TE7vmhAAbaG0M19s3-n8-24">
          <mxGeometry x="450" y="550" width="140" height="20" as="geometry" />
        </mxCell>
        <mxCell id="TE7vmhAAbaG0M19s3-n8-42" value="system generated" style="rounded=1;whiteSpace=wrap;html=1;labelBackgroundColor=#FFFFFF;fillColor=#f5f5f5;gradientColor=#b3b3b3;strokeColor=#666666;" vertex="1" parent="TE7vmhAAbaG0M19s3-n8-24">
          <mxGeometry x="460" y="360" width="120" height="20" as="geometry" />
        </mxCell>
        <mxCell id="TE7vmhAAbaG0M19s3-n8-43" value="select the form" style="rounded=1;whiteSpace=wrap;html=1;labelBackgroundColor=#FFFFFF;fillColor=#f5f5f5;gradientColor=#b3b3b3;strokeColor=#666666;" vertex="1" parent="TE7vmhAAbaG0M19s3-n8-24">
          <mxGeometry x="460" y="410" width="120" height="20" as="geometry" />
        </mxCell>
        <mxCell id="TE7vmhAAbaG0M19s3-n8-44" value="verify" style="rounded=1;whiteSpace=wrap;html=1;labelBackgroundColor=#FFFFFF;" vertex="1" parent="TE7vmhAAbaG0M19s3-n8-24">
          <mxGeometry x="460" y="510" width="120" height="20" as="geometry" />
        </mxCell>
        <mxCell id="TE7vmhAAbaG0M19s3-n8-46" value="" style="strokeWidth=1;shadow=0;dashed=0;align=center;html=1;shape=mxgraph.mockup.containers.browserWindow;rSize=0;strokeColor=#666666;strokeColor2=#008cff;strokeColor3=#c4c4c4;mainText=,;recursiveResize=0;fillColor=#FFFFFF;" vertex="1" parent="1">
          <mxGeometry x="100" y="1250" width="1000" height="1040" as="geometry" />
        </mxCell>
        <mxCell id="TE7vmhAAbaG0M19s3-n8-47" value="" style="strokeWidth=1;shadow=0;dashed=0;align=center;html=1;shape=mxgraph.mockup.containers.anchor;fontSize=17;fontColor=#666666;align=left;" vertex="1" parent="TE7vmhAAbaG0M19s3-n8-46">
          <mxGeometry x="60" y="12" width="110" height="26" as="geometry" />
        </mxCell>
        <mxCell id="TE7vmhAAbaG0M19s3-n8-48" value="https://www.shipping.com" style="strokeWidth=1;shadow=0;dashed=0;align=center;html=1;shape=mxgraph.mockup.containers.anchor;rSize=0;fontSize=17;fontColor=#666666;align=left;" vertex="1" parent="TE7vmhAAbaG0M19s3-n8-46">
          <mxGeometry x="130" y="60" width="250" height="26" as="geometry" />
        </mxCell>
        <mxCell id="TE7vmhAAbaG0M19s3-n8-49" value="" style="dashed=0;outlineConnect=0;html=1;align=center;labelPosition=center;verticalLabelPosition=bottom;verticalAlign=top;shape=mxgraph.weblogos.skyrock;fillColor=#009AFF;strokeColor=none;labelBackgroundColor=#FFFFFF;" vertex="1" parent="TE7vmhAAbaG0M19s3-n8-46">
          <mxGeometry x="60" y="10" width="30" height="30" as="geometry" />
        </mxCell>
        <mxCell id="TE7vmhAAbaG0M19s3-n8-50" value="" style="whiteSpace=wrap;html=1;aspect=fixed;labelBackgroundColor=#FFFFFF;fillColor=#dae8fc;strokeColor=#6c8ebf;gradientColor=#7ea6e0;" vertex="1" parent="TE7vmhAAbaG0M19s3-n8-46">
          <mxGeometry x="20" y="150" width="870" height="870" as="geometry" />
        </mxCell>
        <mxCell id="TE7vmhAAbaG0M19s3-n8-51" value="&lt;span style=&quot;background-color: rgb(255, 230, 204);&quot;&gt;AS A LEVEL1 MANAGER&lt;/span&gt;" style="text;html=1;strokeColor=#d79b00;fillColor=#ffe6cc;align=center;verticalAlign=middle;whiteSpace=wrap;rounded=0;labelBackgroundColor=#FFFFFF;" vertex="1" parent="TE7vmhAAbaG0M19s3-n8-46">
          <mxGeometry x="400" y="230" width="110" height="30" as="geometry" />
        </mxCell>
        <mxCell id="TE7vmhAAbaG0M19s3-n8-52" value="" style="shape=ext;double=1;whiteSpace=wrap;html=1;aspect=fixed;labelBackgroundColor=#FFFFFF;fillColor=#d5e8d4;strokeColor=#82b366;gradientColor=#97d077;" vertex="1" parent="TE7vmhAAbaG0M19s3-n8-46">
          <mxGeometry x="190" y="260" width="490" height="490" as="geometry" />
        </mxCell>
        <mxCell id="TE7vmhAAbaG0M19s3-n8-53" value="CREATE A PURCHASE REQUEST" style="rounded=1;whiteSpace=wrap;html=1;labelBackgroundColor=#FFFFFF;" vertex="1" parent="TE7vmhAAbaG0M19s3-n8-46">
          <mxGeometry x="372.5" y="290" width="145" height="30" as="geometry" />
        </mxCell>
        <mxCell id="TE7vmhAAbaG0M19s3-n8-54" value="Purchase request" style="rounded=1;whiteSpace=wrap;html=1;labelBackgroundColor=#FFFFFF;" vertex="1" parent="TE7vmhAAbaG0M19s3-n8-46">
          <mxGeometry x="280" y="360" width="120" height="20" as="geometry" />
        </mxCell>
        <mxCell id="TE7vmhAAbaG0M19s3-n8-55" value="PR form" style="rounded=1;whiteSpace=wrap;html=1;labelBackgroundColor=#FFFFFF;" vertex="1" parent="TE7vmhAAbaG0M19s3-n8-46">
          <mxGeometry x="280" y="410" width="120" height="20" as="geometry" />
        </mxCell>
        <mxCell id="TE7vmhAAbaG0M19s3-n8-56" value="cost" style="rounded=1;whiteSpace=wrap;html=1;labelBackgroundColor=#FFFFFF;" vertex="1" parent="TE7vmhAAbaG0M19s3-n8-46">
          <mxGeometry x="280" y="460" width="120" height="20" as="geometry" />
        </mxCell>
        <mxCell id="TE7vmhAAbaG0M19s3-n8-57" value="value" style="rounded=1;whiteSpace=wrap;html=1;labelBackgroundColor=#FFFFFF;" vertex="1" parent="TE7vmhAAbaG0M19s3-n8-46">
          <mxGeometry x="280" y="510" width="120" height="20" as="geometry" />
        </mxCell>
        <mxCell id="TE7vmhAAbaG0M19s3-n8-58" value="" style="verticalLabelPosition=bottom;verticalAlign=top;html=1;shape=mxgraph.basic.patternFillRect;fillStyle=diag;step=5;fillStrokeWidth=0.2;fillStrokeColor=#dddddd;labelBackgroundColor=#FFFFFF;fillColor=#f5f5f5;fontColor=#333333;strokeColor=#666666;" vertex="1" parent="TE7vmhAAbaG0M19s3-n8-46">
          <mxGeometry x="460" y="460" width="120" height="20" as="geometry" />
        </mxCell>
        <mxCell id="TE7vmhAAbaG0M19s3-n8-59" value="submit request" style="labelPosition=center;verticalLabelPosition=middle;align=center;html=1;shape=mxgraph.basic.shaded_button;dx=10;fillColor=#d5e8d4;strokeColor=#82b366;whiteSpace=wrap;labelBackgroundColor=#FFFFFF;" vertex="1" parent="TE7vmhAAbaG0M19s3-n8-46">
          <mxGeometry x="395" y="610" width="100" height="40" as="geometry" />
        </mxCell>
        <mxCell id="TE7vmhAAbaG0M19s3-n8-60" value="" style="shape=image;html=1;verticalAlign=top;verticalLabelPosition=bottom;labelBackgroundColor=#ffffff;imageAspect=0;aspect=fixed;image=https://cdn3.iconfinder.com/data/icons/essential-rounded/64/Rounded-31-128.png;fillColor=#FFFFFF;" vertex="1" parent="TE7vmhAAbaG0M19s3-n8-46">
          <mxGeometry x="610" y="270" width="50" height="50" as="geometry" />
        </mxCell>
        <mxCell id="TE7vmhAAbaG0M19s3-n8-61" value="&lt;font face=&quot;Georgia&quot; style=&quot;font-size: 24px;&quot;&gt;&lt;i style=&quot;background-color: rgb(255, 255, 255);&quot;&gt;SHIPPING.COM&lt;/i&gt;&lt;/font&gt;" style="text;html=1;strokeColor=#b85450;fillColor=#f8cecc;align=center;verticalAlign=middle;whiteSpace=wrap;rounded=0;labelBackgroundColor=#FFFFFF;gradientColor=#ea6b66;" vertex="1" parent="TE7vmhAAbaG0M19s3-n8-46">
          <mxGeometry x="175" y="180" width="560" height="30" as="geometry" />
        </mxCell>
        <mxCell id="TE7vmhAAbaG0M19s3-n8-62" value="PURCHASE REQUEST ID" style="rounded=1;whiteSpace=wrap;html=1;labelBackgroundColor=#FFFFFF;" vertex="1" parent="TE7vmhAAbaG0M19s3-n8-46">
          <mxGeometry x="265" y="550" width="150" height="20" as="geometry" />
        </mxCell>
        <mxCell id="TE7vmhAAbaG0M19s3-n8-63" value="SYSTEM GENERATED" style="rounded=1;whiteSpace=wrap;html=1;labelBackgroundColor=#FFFFFF;" vertex="1" parent="TE7vmhAAbaG0M19s3-n8-46">
          <mxGeometry x="450" y="550" width="140" height="20" as="geometry" />
        </mxCell>
        <mxCell id="TE7vmhAAbaG0M19s3-n8-64" value="system generated" style="rounded=1;whiteSpace=wrap;html=1;labelBackgroundColor=#FFFFFF;fillColor=#f5f5f5;gradientColor=#b3b3b3;strokeColor=#666666;" vertex="1" parent="TE7vmhAAbaG0M19s3-n8-46">
          <mxGeometry x="460" y="360" width="120" height="20" as="geometry" />
        </mxCell>
        <mxCell id="TE7vmhAAbaG0M19s3-n8-65" value="select the form" style="rounded=1;whiteSpace=wrap;html=1;labelBackgroundColor=#FFFFFF;fillColor=#f5f5f5;gradientColor=#b3b3b3;strokeColor=#666666;" vertex="1" parent="TE7vmhAAbaG0M19s3-n8-46">
          <mxGeometry x="460" y="410" width="120" height="20" as="geometry" />
        </mxCell>
        <mxCell id="TE7vmhAAbaG0M19s3-n8-66" value="" style="strokeWidth=1;shadow=0;dashed=0;align=center;html=1;shape=mxgraph.mockup.containers.browserWindow;rSize=0;strokeColor=#666666;strokeColor2=#008cff;strokeColor3=#c4c4c4;mainText=,;recursiveResize=0;fillColor=#FFFFFF;" vertex="1" parent="TE7vmhAAbaG0M19s3-n8-46">
          <mxGeometry x="10" y="-15" width="990" height="1040" as="geometry" />
        </mxCell>
        <mxCell id="TE7vmhAAbaG0M19s3-n8-67" value="" style="strokeWidth=1;shadow=0;dashed=0;align=center;html=1;shape=mxgraph.mockup.containers.anchor;fontSize=17;fontColor=#666666;align=left;" vertex="1" parent="TE7vmhAAbaG0M19s3-n8-66">
          <mxGeometry x="60" y="12" width="110" height="26" as="geometry" />
        </mxCell>
        <mxCell id="TE7vmhAAbaG0M19s3-n8-68" value="https://www.shipping.com" style="strokeWidth=1;shadow=0;dashed=0;align=center;html=1;shape=mxgraph.mockup.containers.anchor;rSize=0;fontSize=17;fontColor=#666666;align=left;" vertex="1" parent="TE7vmhAAbaG0M19s3-n8-66">
          <mxGeometry x="130" y="60" width="250" height="26" as="geometry" />
        </mxCell>
        <mxCell id="TE7vmhAAbaG0M19s3-n8-69" value="" style="dashed=0;outlineConnect=0;html=1;align=center;labelPosition=center;verticalLabelPosition=bottom;verticalAlign=top;shape=mxgraph.weblogos.skyrock;fillColor=#009AFF;strokeColor=none;labelBackgroundColor=#FFFFFF;" vertex="1" parent="TE7vmhAAbaG0M19s3-n8-66">
          <mxGeometry x="60" y="10" width="30" height="30" as="geometry" />
        </mxCell>
        <mxCell id="TE7vmhAAbaG0M19s3-n8-70" value="" style="whiteSpace=wrap;html=1;aspect=fixed;labelBackgroundColor=#FFFFFF;fillColor=#dae8fc;strokeColor=#6c8ebf;gradientColor=#7ea6e0;" vertex="1" parent="TE7vmhAAbaG0M19s3-n8-66">
          <mxGeometry x="20" y="150" width="870" height="870" as="geometry" />
        </mxCell>
        <mxCell id="TE7vmhAAbaG0M19s3-n8-71" value="&lt;span style=&quot;background-color: rgb(255, 230, 204);&quot;&gt;AS A LEVEL1 MANAGER&lt;/span&gt;" style="text;html=1;strokeColor=#d79b00;fillColor=#ffe6cc;align=center;verticalAlign=middle;whiteSpace=wrap;rounded=0;labelBackgroundColor=#FFFFFF;" vertex="1" parent="TE7vmhAAbaG0M19s3-n8-66">
          <mxGeometry x="400" y="230" width="110" height="30" as="geometry" />
        </mxCell>
        <mxCell id="TE7vmhAAbaG0M19s3-n8-73" value="PR FORM" style="rounded=1;whiteSpace=wrap;html=1;labelBackgroundColor=#FFFFFF;" vertex="1" parent="TE7vmhAAbaG0M19s3-n8-66">
          <mxGeometry x="372.5" y="290" width="145" height="30" as="geometry" />
        </mxCell>
        <mxCell id="TE7vmhAAbaG0M19s3-n8-79" value="submit&amp;nbsp;" style="labelPosition=center;verticalLabelPosition=middle;align=center;html=1;shape=mxgraph.basic.shaded_button;dx=10;fillColor=#d5e8d4;strokeColor=#82b366;whiteSpace=wrap;labelBackgroundColor=#FFFFFF;" vertex="1" parent="TE7vmhAAbaG0M19s3-n8-66">
          <mxGeometry x="395" y="905" width="100" height="65" as="geometry" />
        </mxCell>
        <mxCell id="TE7vmhAAbaG0M19s3-n8-81" value="&lt;font face=&quot;Georgia&quot; style=&quot;font-size: 24px;&quot;&gt;&lt;i style=&quot;background-color: rgb(255, 255, 255);&quot;&gt;SHIPPING.COM&lt;/i&gt;&lt;/font&gt;" style="text;html=1;strokeColor=#b85450;fillColor=#f8cecc;align=center;verticalAlign=middle;whiteSpace=wrap;rounded=0;labelBackgroundColor=#FFFFFF;gradientColor=#ea6b66;" vertex="1" parent="TE7vmhAAbaG0M19s3-n8-66">
          <mxGeometry x="175" y="180" width="560" height="30" as="geometry" />
        </mxCell>
        <mxCell id="TE7vmhAAbaG0M19s3-n8-87" value="" style="shape=image;verticalLabelPosition=bottom;labelBackgroundColor=default;verticalAlign=top;aspect=fixed;imageAspect=0;image=data:image/png,iVBORw0KGgoAAAANSUhEUgAAAakAAAIqCAYAAACe4LWwAAAgAElEQVR4nOzdeVxO6f/48Vd1SmlRlpLIFmkhESmUNTOFse/GWDOW4WOdhezL2Gdsg7ENY9/3NYpCMrLLvqRkKe2l5fr90a/z1WCGQd24no/H/XDf577OOe9zUu9znXMtWhYWFgJJkiRJ0kDa+R2AJEmSJL2OTFKSJEmSxpJJSpIkSdJYMklJkiRJGksmKUmSJEljySQlSZIkaSyZpCRJkiSNJZOUJEmSpLFkkpIkSZI0lkxSkiRJksaSSUqSJEnSWDJJSZIkSRpLC3jjAWaFkGPRSpIkSW9PS0vrP60na1KSJEmSxpJJSpIkSdJYMklJkiRJGksmKUmSJEljySQlSZIkaSyZpCRJkiSNJZOUJEmSpLFkkpIkSZI0lkxSkiRJksaSSUqSJEnSWDJJSZIkSRpLJilJkiRJY8kkJUmSJGksmaQkSZIkjSWTlCRJkqSxlPwOQJIk6XUSEhL48ccf8zuMz9KXX36Jt7d3fochk5QkSZorJSWFChUq8N133+V3KJ+V5ORkFixYIJOUJEnSmwoKCuLw4cMAtG/fHltb21zfZ2ZmkpiYSKFChfIjPOkDkc+kJEn6KOzYsYOEhASaNGlClSpVePDgARkZGaSkpJCens79+/dxdXUlKyuLtLQ0UlJSEELkd9jSO5JJSpKkj4adnR2urq506NCBEydO4ODgwLx583B0dOTYsWPExMQQGxtL0aJFmTdvHl9//XV+hyy9I5mkJEn66MTGxgLg4uLCr7/+SmZmJvXq1aNIkSKEhIQghOCXX35h/fr1pKSk5HO00ruQSUqSpI/G+vXrGTBgAAEBAfj4+BAcHMzcuXPV71NTU6lWrRqFCxdmz549dOzYEQMDg3yMWHpXsuGEJEkfhd69e3P37l0Avv/+ewwMDJg3bx7JycksW7YMS0tLhgwZgr6+PsuWLSMgIIAZM2bkc9TSu5JJSpKkj4KNjQ02Nja5lvn4+OT6PHDgQAAaNWpEo0aN8iw26cORt/skSZIkjSWTlCRJkqSxZJKSJEmSNJZMUpIkSZLGkklKkiRJ0lgySUmSJEkaSyYpSZIkSWPJJCVJkiRpLJmkJEmSJI2lBbzxWPYfy7D3LVu2JDg4ONcyV1dXNm7cSIECBahTpw7Xr18nOjpa/d7d3Z3Hjx9z/fp1IiMjcXZ2fmm7devWZdOmTern0NBQvL29ycjIQEtLCy8vL9asWYOWlhYTJkxg3rx5bN++nVq1agGwefNm+vXrx8CBAxk1apS6nUGDBrFu3TqqVKnCwYMHc+2za9eu7Nu3j8zMTLS0tGjbti2//fYbAIMHD2bt2rUvxdmoUSP+/PPPXMt27dpFz549XyrbtWtXdegYFxcX7t+//1KZPXv2UL16dQBmzZrF9OnTSUtLQ0dHh8aNG7NmzRoA4uPjqVChAsWKFePixYvq+lWrViUqKoro6GgWLFjAuHHjXtqHpaUlYWFhADg6OhIVFYUQAkVRGDJkCN9//z3z589n/PjxL60LMGrUKHW0AenTER8fT7NmzdDR0cnvUD47P/30Ew0bNnxv29PS0vpP632SwyIlJCQQExND1apVAQgLC2Pv3r20atWK3bt3ExERQUxMTK514uPj1ZGVs7Ky1O9f3Mb27dtZtmwZPXr0YMWKFfTu3RuAZs2acfPmTTZt2sSxY8e4c+cOqampxMTEkJGRoe7j+fPnxMTE5BqVOSMjgwULFgBw9OhRnj59SpEiRQAYO3Ys69ato0yZMrRp04Zt27axdOlSLl++TGBgICkpKcTExGBra5trEM0yZcq8dE5y4vn7Mf3yyy+4uLjQoUMHnj17luu85UhPTwdg+PDh/Prrr2RlZdGsWTNOnjzJxo0buXfvHsePH0cIQUxMDIqS+79VbGysuu+0tDRiYmIoVqwYVlZWapmiRYsCUKlSJW7evEm9evVwcXFh9erVjB49miJFimBiYoK1tbUa+4vHUq5cuZeOWfr4mZiYEBAQkN9hSPlMvOnrY9GwYUOhKIr6OTMzUxgaGgpFUURycrIoXbp0ru+FEMLBwUEUKVJECCHE/fv3haIoYvr06er3gYGBQlEU8fXXXwshhLCwsBCKooibN28KIYRIT08XjRs3FoqiiMePH4sff/xRKIoijh07pm5jzZo1QlEU8eOPP6rLHj9+LBRFUdc9c+aM+l2TJk2EoigiJSVFCCFEamqqUBRFFCtWTAghRJ8+fYSiKCIsLOxfz8nGjRuFoihi1qxZ6rKjR48KRVHETz/9JIQQonz58qJEiRKv3YaBgYFQFEXExcUJIYRISUkRX331lVAURcyfP188e/ZMKIry0jasra3V8z1r1iyhKIr49ddfX9p+Wlqa0NPTE4qiiMzMTCGEEE+ePBGKooj27dvnKqsoirC0tPzX45YkSTO8Ta558fVJ1qT+TktLS61q6urq/qdt3LlzB4AqVaoQFhbG06dPqVevnnoFrygKa9as4e7du5iamqrrLVq0iP379wNw7ty5l7Y7ffp0IPtWoJWVFT/88INavmDBggD07NmTPn364OnpqdZqXnTs2DEiIiLUzxUrVqRChQr/ekxHjx4FeGka7t27d6vvdXR0+OKLL1i3bh3p6els2LABExMTAPT19Zk4cSK7d+9mz549dO7c+V/3mePUqVO5aj/29vaULFlS/Tx06FC++eYbypcv/8pjho/n9rMkSe/mk61JtWzZUrRs2VLUrl1bKIoiunfvLoQQb1yT+vurVatWIjk5Wezdu1coiiK6dev22hhyalKveuXUpBITE4WiKEJPT09kZGSIMmXKCEVRxIMHD4QQQty4cUM4OTnlWrdq1api4cKFQoj/q0n9/bVy5cqX4smpSf391bZtW5GcnCyEyK5J/f17IyMjIYQQ/fr1E4qiiJCQkFzbzTlX1atXf6ua1N9fI0aMEEIIERAQoNZ6c1516tQRp06dyrVNRVFE8eLFX3v+JUnSLG+Ta/hcalLnz59X3/fq1YuZM2cCoKen90brOzk5qY0eNm3axI4dO7h+/TqFChUCICkp6V+3sXr1aurUqQNkN14YMGCA+l1kZCQAbm5ubN26ldq1a7N+/XqOHz9Ou3btKF++PGFhYVy/fp1Lly5x+vRppk2bxrBhw+jbt6+6ndmzZ1O2bFn1c7Vq1V4bj7e3N6VKlQJg48aNBAYGEh8frz7TMjIyYvXq1Wp5be3sBqDFixcH4OHDh+p3t2/fVmumObW+N9WtWzdatmypfs551uTh4UFiYiJhYWGEh4ezf/9+Vq1aRatWrXLVFkHWpCTpc/BJJ6kbN268cnmBAgWA7CRjaGgI8MoH/h06dGDYsGEAmJmZMXXqVG7dukW9evUAuHTpUq7yvXv3ZsWKFTx48EBdZmVlpTYQyLlNlmPs2LEABAUFERQUpC5fvXo17dq1Y9y4caSnpzNx4kQqVKhAixYtyMjIYNasWbm2U7duXZycnN7gjEC9evX43//+B2TfBv3tt9+4du0aFhYWQHay+fscPQDffPMNkydPZtasWTRr1oxnz57h4uKizu/j6uqqls3MzMy17ouNR3I4OTm9tJ/nz58zYsQIdervqlWr0r59e8LDwwkJCXmj45Mk6dPySSep16lYsSJXr15l5MiR+Pj4cObMGR4/fvxSq7YX5SSYlJQUTE1NGTx4MHPmzKFz585069aNmzdvsmLFilxl/0lycjIbNmzA0NCQjRs3qsv79evH3r17iYiI4OLFi2zbtg09PT2++OIL4uLi2Lhx40u1lp07d6qt3XJ069btjc9HfHy8+j41NZWVK1fm+r58+fLUqVOHSpUqcfz4cXr37k2rVq2oWrUqgYGBGBgYMHToUAoVKoSDgwOXLl1i7NixuLq6cubMGR49epSr1gQQEhKSaz86Ojp06NCBhQsXkpWVhZubG/b29ly7do2rV6++8mcja1KS9Hn45J5JtW7dWpibm7/2+/v374tq1arleu5hY2Mj7t27J4QQ4sGDB8Lc3DxX676VK1fmWhYTEyM8PT1zbaN48eLi8uXLQgghJk+eLMzNzUVwcLC6jY0bNwpzc3Mxbtw4ce7cOWFubi569+6dK7Yff/xRmJubi/3794vo6Gjh4ODw0jOipUuXCiGEGDZsmDA3N3/l6++2bNkizM3NxfLly9VlY8aMEebm5mLOnDlCCCGcnZ1fua3Bgwer63h4eOSKx9LSUiiKIgYOHCiEECIyMlLY29vnKmNvb6+e23nz5r1yH6VKlRJCCHH16lV1mzkva2trERAQkOt4zM3NhY2NzWt/xpIkaZa3yTUvvj7JzrxvKioqiuPHj1O7dm1KlCjxn7aRkJDAvn37cHJyomLFiu85wmwxMTEcPnwYOzs7HB0dP8g+3sbdu3cJCQnBwsICDw8PFixYQLNmzdRnXQAXLlzg6tWr2NjYvLJj9L+5fv06YWFhGnPMkiS9m//amfezTlKSJElS3vivSUqO3SdJkiRpLJmkJEmSJI31WbbukyTp45Cenv5Sy1Upb1SvXl3tJ5mf5DMpSZI01qNHj5g7dy6VK1fO71A+K8+fP+fhw4dqP9H3QY6CLknSJ6lYsWK0a9cuv8P4rCQnJ6uzM+Q3maQkSfpoXL16FciefyxneDLp05b/NxwlSZLewOHDh/H29mbSpEk4OTnlmljzbbVq1SrXpKdvIyIigmbNmv3nfUtvR9akJEn6KKSmpuLo6MiqVasYPnw4mzdvZvv27fj7+2NiYsKvv/5Kw4YNsbW1JSoqipCQEBwdHTExMaFXr17ExMSwf/9+LC0tCQoKYt26dYSGhpKVlUVoaCgVK1bk/PnzXL58mV69epGQkICdnR1NmjRh5MiRpKen4+7ujouLCyEhIYSFhf3jUGrS+yFrUpIkfRReHADaysqKuLg45syZQ+PGjbl48SKXL18mLS2NnTt38vTpU9LS0mjSpAm1atVi8+bNJCcn06hRI1avXk25cuXw8fEhOjqamTNnYmpqys6dO1EUhaSkJLZv306dOnVYvnw5jx49wsHBgX379hESEkL9+vUpWbKkTFB5RCYpSZI+Cubm5iQlJXHhwgU2btyIm5ubOinnsGHDsLe35/nz50RFRVGgQAEeP37MiRMn8Pb2VrdhZmb20nZzpqGB/5syRktLixYtWjBu3DjMzc3ViUxTUlI+8FFKfyeTlCRJHwVTU1O0tbUZM2YMjRo1om3btowfP56ePXuqc8cJIejSpQsuLi6ULFkSHR0dDhw4gIODA/b29ups0D4+PsybN0+dL65BgwYAeHp6oq+vT48ePejcuTOZmZmYm5tja2uLvr4+tWvXxsjICGNjY3W2bunDkv2kJEnSWI8ePWLdunV89913/1r2/v37eHl5ceXKlTyI7NOW0wRdE/pJyZqUJEmfhFKlSskE9QmSSUqSJEnSWDJJSZIkSRpLJilJkiRJY8kkJUmSJGksmaQkSZIkjSWTlCRJkqSxZJKSJEmSNJYcYFaSJI2lq6vL5s2bOXjwYH6H8lkRQtCtW7f8DgOQI05IkiRJeUCOOCFJkiR9cmSSkiRJkjSWTFKSJEmSxpJJSpIkSdJYMklJkiRJGksmKUmSJEljySQlSZIkaSyZpCRJkiSNlacjTixevJj79+/n5S4lSfoHhoaGfP/99/kdxn+yb98+wsPDefLkSX6H8lEyNzfH1tYWLy+v/A7lH+XpiBNlypRh5cqV77QNSZLej4SEBHx9fXnw4EF+h/LG/vjjD6ZNm8atW7dIT0/P73A+CXp6ejg5OfHzzz9Tt27dD7af/zriRJ7WpAoWLIinp2de7lKSpNeIiYnJ7xDeSr169QgKCqJ58+bMnz+fChUqUKJEifwO66OVlJTEs2fPOH78OJMmTaJJkyb06dOHOXPm5HdoucgBZiVJ0mhCCKpVq8bFixc5ePAg9erVy++QPgmGhoYYGhrSvn17vvrqK5YsWcKQIUNISEhg6dKl+R2eSiYpSZI02hdffMHFixc5e/Ysjo6O+R3OJ0lfX5+BAwdiYGDAgAEDaNasGS1atMjvsACZpCRJ0mCxsbH4+/uza9cumaDyQK9evbhw4QKdO3cmLi4ORcn/FCGboEuSpLH69OmDjo4OjRs3/sdy/fr1w9PTk8aNG3P06FECAwMZPXo0AD179uTMmTMMHDgQT09PPD09GTZsGACHDx/G3d0dZ2dnDh8+zOPHj9Xn5vPmzeP3338HYNeuXXh6epKQkADAkiVLsLOzo1GjRjx+/JgpU6ao2/b09OTx48cABAQEqMuaNGnC7du3WbNmTa6ySUlJLFmyBGdnZ2rWrMnJkye5desW7dq1A+DKlSt07NgRf3//XOvFxMTQu3dvXF1d6d69O2FhYbm+79y5M1u2bMHe3h5PT09Onz79Rud8zJgxPH/+nAsXLrzlT+vDEW/6eld2dnav/S4hIUHMmDFDpKamCiGEOHDggAgICHjrfcyYMUMkJCS81TphYWEiMTFR3Lhx4633J0kfq6dPn4oSJUrkdxivlZCQIBRFEStXrvzXsvXr1xeXLl0Su3btEsWLFxf+/v6iS5cuQgghqlevLg4fPiwaN24stm7dKoQQwsTERFy6dEkYGBiIgIAA8ejRI1GxYkURFBQkFEURMTExom/fvuLnn38WQgjRrl07UaJECbFw4ULx9OlTUbhwYREXFyfWrFkj+vbtK/r16ydGjx79Ulzbt28XHh4eQgghRo4cKXr06CHGjh0r+vTpo5aJiIgQZmZm4sGDB+Lw4cPC0tJS/PXXX6JChQpCCCFCQkJExYoVxYEDB0TdunXV9S5evCgcHR1FamqqGDVqlNi8ebMQQohevXqJDRs2iOTkZGFgYCBiYmJEeHi46Nat2xuf+2LFiokGDRq8cfk38Ta55sWXxtSkjIyMGDNmDOfOnQOyr37E/2/yHhcXR1JSklo2ISFBbZny4rK0tDS+//57tUltXFwc0dHRucoApKWlqcueP39OmzZt2Lt3L4sXL/5wByhJ0luJj48H4Ouvv36j8mvXruX06dOYm5u/tsyYMWPw9PSkVKlSaGtrU758eTw8PChWrBjh4eFoa2f/SaxRowarVq0CIDU1lZCQEEaPHs3WrVspXLgwNjY2WFtbs379egYOHAjAlClTKFy4MK6urrn2GR4eTrNmzZgzZw4//PADAMuXL6dw4cLUr1+fxYsX06lTJ0qUKEGDBg0wNDTkzp07r4z/xIkTFC5cmMKFC+Pg4ICxsTFmZmZERERQu3btXGUNDAzo1KkT5cuX57vvvsPX1/eNziPAiBEjCAwM1IiJbjUmSQHUrVuXU6dOcfz4cZ49e4anpyfjxo2jdOnSWFtbs2/fPk6ePEnhwoWpUKECxYoV48qVK2zduhULCwvs7e3VbR04cAALCwsqVaqEn58fQghKly6Nubk5AQEBajlzc3MiIyPp1q0by5Yty4/DliTpNXR1dd+qvL29vXqhm5GRAUBWVpb6fe/evZkzZw6xsbHo6ekRGxtLWloaycnJjB07Vv2jfOPGDbp37w7AoUOHiIiIYNmyZfj7+5OUlMT48eN59uwZgwYNolq1agD88MMPxMTEcOrUqVwx2draMn78eLy8vAgJCQGge/fuxMTEcOTIEVxcXLhw4QKZmZmMHTuWzMxMDAwM1FhevKh2c3MjJiaGmJgYEhISWLJkCcnJyejp6TF8+PBc+83MzKRp06bExMQwbdo0PD09SUxMfKPzWL16dQCN6IuW/0/FXtCqVSt+//13Hj9+TIsWLRBCMHHiRJ4+fcqOHTvo2LEje/bsQVEUIiMjqV69OtevX2f69OksW7aMSpUqUaNGDYQQ+Pj4cPbsWUqWLIm5ubnaqz4wMJBKlSqp+5w1axZhYWFcuHCBQ4cO5dehS5L0DhRFoWPHjuqFaq1atfD29qZ27dpcvXoVKysrdHR0KFWqFM7OzsTGxlK6dGlq1KiBtbU1pUqV4unTpzRt2hQ9PT0AtLW10dbWZunSpfz555+0a9dOvZgdPXo0VatWJSUlhSZNmqCjo8P06dOZPn06AGFhYdja2qKtrY2iKDg7O1OuXDnCw8PR0dHhjz/+4I8//gDg3r17PHz4EEdHR5KSkihWrBheXl48evSI2rVrExoayooVKwA4ffo0BgYGAJw/fx5XV1caNGjA+fPn1Wdw2tra6OjooKOjQ48ePZg+fTra2tq4u7tjZGSUpz+X90UjnknlUBRFODs7i6NHj4pHjx4JRVGEh4eH8PDwEF5eXiI4OFi4ubkJIYSoVq2a2L59u6hUqZLYs2ePun5wcLBQFEUIIURSUpLQ1dUVCQkJwszMTDx8+FDdV0BAgFAURX25urq+8zFK0sdC059JPXjwQBgYGLxR2aysrFcuy3n9vczf37/uu9dt+3Xr/X3Z6/b7qrI5n+/evfvG+3jddv4pzjfh7+8vFEURaWlpb7XeP3mbXPPiS6NqUgDNmjXjr7/+ok6dOmhpaVGxYkUaNGjAnTt3CAwMfOXQGhUqVGDkyJHqPWRTU1Ps7Oywt7endu3aaGlpoa+v/9J6tWvXxsvLi27durFo0SJ2794NZD+nyrllIEmfCktLS0qWLJnfYXwQr/q78PdlL35+3fs3+fwu5XLe/1O81tbW7xTbm8b1sdC4JPXbb7+Rnp6Ojo4OAMePH2fmzJlUqlSJhQsXIoRg3bp1AGzZsoUiRYrQqFEjlixZgrm5OWPHjqVMmTIEBgYyY8YMFEXh7t27KIpCSEgIRYoUUfelo6NDjRo1qFChAt7e3moiUxQFGxubvD94SfqAXnWhJkmaLk8HmLW3t+fy5cvvtA1Jkt6PmJgYKleurLEDzEZGRmJjY0NycnJ+h/KS5ORk6tSpg7u7O3PnzqVu3bqULFmSJk2aEB0dzffff88PP/yAi4sL0dHR/P777+jo6LB27Vq1/1OO3bt3Y2lpmU9H8mpHjhzBy8uLpKQk9Rndu/qvNTqNat0nSZL0MXj48CEXLlwgIiKCK1euEBISgru7O+vXr6d8+fIAbNu2DX19fX7++Wd27NjB4MGDWbx4MZs2bcLBwYEGDRqwadOmf2wyL2ng7T5JkiRNFxkZibGxMZDdKllHRwc3Nzfmz5+Po6Mj0dHR3Lhxg5o1a5Kenk7Lli1xc3Pj119/BbJHujhx4gSlS5fOz8P4KGhETWr//v3Url2b0qVL06NHD+Li4vI7JEmSpNfy9/enQ4cOnD9/HlNTU3R1dSlbtixRUVGUK1eOs2fP0rBhQ65fv05gYCC//PILW7Zs4fz58yQnJxMTE0Px4sXz+zA+ChqRpDp16oSnpydr1qzh1KlTLFiwAICLFy+yZs0arly5AmTfu33w4AFr164lMTGRrVu3cvToUQCOHj1KaGgomzZtUufJuXnzJmvWrGHPnj1kZWVx4cIFrl+/zoYNG7h48SJxcXFqi77Y2FgCAwPz4eglSfrYLF68mJ49e/LgwQPWrVvH8+fP1WTVv39/+vbty5AhQ1i5ciV9+vRh+/btaGlpUaVKFZKTk9HR0dGIwVs/FvnaTyo0NFQoiiKSk5OFEEI8fvxY3Lp1SyxdulQUL15cdOrUSZiamoonT54IRVGElZWVcHR0FIqiCB8fH2FoaCjCw8NFlSpVRKlSpUSdOnWEtbW1ePLkidDX1xctW7YUiqKIa9euiQ4dOghzc3N12alTp4SpqakIDg4Wv//+u2jevPk7H6MkfSw+pX5See3GjRsiLS1NHe8z59+IiAixdu1aERUVpZbdtm2bWLdunfo5PT1d3Lp1K28Dfkuyn9QLcsaoyrmqMDAwwNDQkM2bNzNgwAB++uknateuzZo1awBYv349BQoUwM3NjV27dlGuXDl1fL6xY8fSunVrihYtysOHD5k9ezYxMTHs3LlT3U+/fv0YM2YMJUqUQFdXl+bNm7N792527tzJjBkz8uEMSJL0sclpHPH3f62srOjQoUOusl999VWuz4qiULZs2TyI8tOQ70mqdevWKIrCpUuXqFq1Kn379qVw4cKYmpoSHx9PRkYGT58+zTV+1es8efJETXb37t3jxx9/JDg4mA0bNqhlSpUqlWudZs2aMWLECDIzM9XpADIyMrh48eJ7PEpJ0gxVq1bN7xAk6a3ke5KC7ETh5uZGRkYGhQsX5tChQ0RFRdG2bVu2bdtGZmYmw4YNY8KECeo6hQoVArJrXjkdfydNmsSiRYuoU6cOdnZ2pKen06lTJyIiIkhNTUVXV1cd5TinY2ObNm3o1q1brvlqFEWRv8yS9Bk4cuQII0aMAKBp06aMGTMGLy8vYmNjAfD09Mx1hyU4OJipU6eyY8cOsrKyco14vn79eo4ePcrChQuB7FZ/HTt2pG3btkD235wpU6bg5ubGn3/+ydy5c7G0tGTTpk3MmDGDmjVr0qhRI4YNG0atWrX4+eef1W3379+fW7dusXfvXiD7mZizs/OHPTkaRKPG7vuvqlSpItavX//W6yUlJYkaNWqI/fv3f4CoJElzyWdS2XMvbdy4UcTGxoqCBQuKzMxMYWpqKiIjI18qm5mZKSpVqqSOC/rkyRNhZGQkhBCiX79+on379qJWrVpi37594vr166JAgQJi8+bNon379kIIIfr37y98fX3F8OHD1WXlypUTy5YtE0OHDhWTJk0SV69eFZUqVRKhoaHC1tZW3XdWVpZQFEVkZGSIsLAwoaurK+Li4j7YeZHPpD4ARVHUWtLbGD58OMbGxnh5eX2AqCRJ0mQrVqxg5cqVAMyZMwdtbW3S0tLU/ktXr16lXLlyQPZ8VXZ2durjCUNDQxRF4dixY6xatYqwsDAaNWrE06dP2b17N82bN+fKlSucP3+eNm3aEBAQwOXLl7G3t1dn7v3qq69QFAV3d3d27drFqFGjmDZtGrdu3eLmzZvo6elRtGhRrly5goGBAdra2jg5OaGvr//Rj8n3pj6ZJHXmzJn/tN78+fPfcySSJGLcUmUAACAASURBVH0Mnjx5gqWlJVeuXOHOnTs0bNiQGjVqULlyZfz9/QEoWLCgWr5Xr17Url2b69evEx4eTkZGBs7OzgQHB3Pr1i2KFClCREQE9+/fp06dOrRq1YpWrVoxffp0SpQowenTp4mLi8s1zNCmTZvw9fUlPT2de/fukZycjI+PDyNGjODHH39kxIgRaGtrExUVhZ6eHlpaWqxYsYJ69eqpnYk/dZ9MkpIkSXob58+f58mTJzg7O5OUlMQff/zBuHHjuH37tvq85/Tp0xQqVIi+ffvyzTffMGLECBYvXkx4eDhhYWFMmDBBnRH37NmzeHh4MHLkSHUfBw8eZMuWLZw4cQILCwssLCx4/PgxHTt25OTJk7Ru3ZqKFSuSnp5OQEAAQUFBaGtrc/LkSW7evMnatWuxsbHh22+/JSEhgYoVK3L37l1u3ryZL+csP2jsALM7d+6kVatW+Pn5qZN55fj+++85duwYQUFB6jIfHx9cXFwYN27cO8UoSZ+Lz32A2cTERCIiIoDsGpO1tTW3b9/O1ZI4Z4LUO3fuULRoUYyMjHj8+DEZGRmkpKSotwIhu2aWlpaGlZWVuuz69etUqFCBpKQkHj16RNmyZYmMjCQyMhIjIyNsbW3V23a3b99Wm6bfuHFDnVlYX1+fAgUKqCPxlChRAhMTkw9yTnJo0gCzGpukevfuTUhICDo6Ovz1118ATJs2jR07dmBsbMyTJ084ffo0/fv359q1a8TFxdGwYUMqVapESEgIaWlpzJ49m/bt26Otrc2kSZNwcnJi2rRp7Nmzh5o1azJt2jROnjzJ6NGjKVasGFOnTs01l4skfco+9yQlvZ4mJSmNGBbp754+fcqmTZuYNGkS4eHh3L9/n4iICMaMGYOfnx8hISEA/PHHH+zatYt+/fqpnXWvX7/Onj17+Oqrr+jfvz/W1tYMHDgQFxcXLl++zE8//cQPP/zAxYsXOXDgAN27d6d69eo4OzszduzY/DxsSZIk6W808plUYGAgiYmJ+Pv7Y2RkxMqVK/Hw8KBgwYJ4eXnRpUsXgoODWb58Of3796dly5Zq3wSAatWq0axZM1q1akWJEiU4fvw4AEWLFsXZ2Zmvv/6aatWqUbp0aVq3bs3PP/+Mk5MTPXv2zK9DliRJg/z555/s2rULgC+//JKvv/6aCRMmqHeCKlWqhJOTE+vXr1fXWbVqFTNnziQsLIwKFSowbNgwwsPDmTVrFgBly5Zl8uTJzJgxI1dDr7Vr16rvr1+/jp+fH/Pnz6dw4cJ5cagaTyNrUuvWrcPd3Z34+HiqVavG6tWrKVOmDM+fP+f+/fvqQLBubm5s2rSJiIgItSb1oooVKzJmzBj27t3LmDFjuH37Ns2bN2f//v3cuXOH/fv3o6+vz9mzZ3FycmLx4sV5faiSJGmgAwcOYGhoSLt27fDz8yM8PJxdu3Zhb29Pu3btqF+/PiEhIQghaNeuHe3atWPt2rWsWLGCnj17cu7cOcaNG8eVK1eIioqiXbt2+Pv7M3fuXHU+qZz1XvTbb79x4MABDh8+nE9Hrnk0siaVlpbG0qVLsbGx4datW3z77bdYWlri5eWFu7s7rq6uWFlZMXnyZIKDg2nQoAE2NjY4ODiQmZmpjkaxdOlSevTowaxZs/jf//6Hq6srY8eOZenSpVhYWNCqVStmz56tzgczceJEADIzM9V+DJL0qTA0NPxsmi2/DyEhIcTHx1OwYEF1Wo3AwEAuXLhA69atAbhw4QJZWVk0aNCA2bNns3r1amrUqEGZMmXw9vbGycmJxMREHj58SHp6ujraxL59+zh//jweHh659unv78+oUaP4888/1ZEqPncamaS2bdumvi9Xrhz79+8HYPPmzS+VzZmq41Vq1ar1UkONnGFFcsycOZOZM2fmWpaens62bduwtrYmKyuLzMxMsrKycr1/1bKcl7a2Njo6Omhra+d6/6plOe9fXP/f9pHzHvjX7f59mba29r9u91XLXlz/TY8NkOdPg85f9erVsbW1faPfQQlatGhB165d6dy5M2fPngWgbdu21K9fHwMDA86dO4ejo6N6cbty5Uru3btHjRo1SExMVBscZGRkoKWlRXR0NCkpKUD2QNc1atTItb+//vqLR48ecf/+fYKDg0lMTMTIyCgPj1gzaWSSym/6+vr07ds3v8OQJCkfHThwgJiYGKKjo9VOvYcOHeL8+fPqlO/FixenQoUKQPYzqSpVqhAZGcnChQvp3r07ABUqVKBv375s376d+/fvA7B69WqCg4MB+OWXX9DR0WHy5Mm0adOGOnXqcPLkSfbu3StrU2hwE3RJkj4s2QT99cLDw9X+UiVLlqRw4cKcP39e/d7Q0JCkpCQURcHe3l5dfuPGDVatWkXDhg3x8PAgOjqajIwMrKysSExMJCoqSq1N5ahSpQqQ3bnYysqKIkWK8OTJE1JSUl6atSGvaFIT9E+2JpWYmMjMmTNRFIXevXtjbm7OwYMHcXJywszMjNTUVHl//j1LTU0lKSmJAgUKyNsU0kftVbdFc5LJP7Gxsck1oICFhYX63sjISK11vcqL2y9atOibhvrJ08jWfe/qyZMnmJmZsWTJEq5fv07JkiWJi4vD39+fkJAQdu3ahaurK1lZWWqv7hffS2/vypUrmJiYUKZMGczMzAgICACgZ8+eJCUlvVQ+KiqKrl275nWYby0rK4uQkBCCg4MJDAzkyJEjCCE4efKk+lxLkqQP55OsSQUHB1OmTBnCw8PR1tbG0dGRs2fPsnPnTipVqsT48eO5f/8+I0eOZMGCBSQlJbF161ZmzZqVa6gl6c3NmDEDT09P9u/fz+bNm2natCnTpk3jjz/+oHXr1nh7ezNixAji4uLw8/Nj3759rFu3jvbt21OvXj2GDh2Knp4ev/76q0aN7nz37l2GDh0KZD8ADw0N5dGjR/z000/88ccfuYbAkfLWhg0b1KbarVq1wsHBgfnz5zNlyhSCgoL466+/MDExUZ/9WFtb89NPPwEwZMgQ7ty5w5QpUzA1NWX69OnqvFG+vr4sWrRIfT9x4kSKFStGVFQUQ4cOJTk5mW3bthEVFZVrAIBp06apLYtv3rzJyJEj0dbWZsOGDcTExPDDDz8AoKury7x589TtA3zxxRe0bNmSNWvWqBd4pqam9OvXj8mTJwPZjXwWLFig/n74+voydepUli1bhqOjI+bm5qxfv55q1aqhKAq3b9+mfv36VKtWDYBRo0bRq1cvypQp8yF+HB/MJ1mTunr1KiYmJmoLqWHDhlGvXj3S09PJzMzk559/xsbGhqlTp2JjY8OaNWtYtGgRAwYMyOfIP16NGzfm+PHjODo6EhoaSkJCAtbW1ujp6WFjY4OHhwfa2tooikL//v3V2x5FihTBx8cHHR0djI2NKVasWD4fSW5ly5bl2LFjHDp0iGvXrtGyZUtMTU25c+cOaWlp2Nvb4+zsjIWFBatWrcrvcD8rp06domLFirRt25aWLVsSHR2ttgw+ceIEISEhnD9/Hh0dHfz8/NiwYQO7du2idevWZGRkMGjQIOrXr09SUhKrV68G4OTJkyxbtgzIbmW8bNkydaCAdu3a0bx5c7p164a7uzvPnj1j+/bt+Pn54efnl+sWd9WqVenduzdffvkl5cuXRwjBpk2b8PPzo1q1ahQrVoxTp04RGhqKn58fI0eOZPv27Zw4cQJTU1P8/Pz43//+R1RUFIGBgfj5+WFmZsYXX3yh7sPf35+7d++ybNky9u3bR2BgINHR0Rw8eJDw8HDWrVuXq7a/cePGj7JrzSdZkypTpkyuh609evSgTp066mddXV0AdHR0aNmyJStXruTs2bPs2LEjz2P9VHTo0AE3NzcePnzImDFj1CtPLS0tzMzMGDlyJMOGDSMqKoq6deuqScrOzo7g4GAePXpEZmYmcXFxpKSkYGBgkM9HlFvXrl0RQrBhwwYg+5ZyRkYGT58+ZdKkSRgbG9OrV6/3dgvz8ePHxMfH51pmaWmZa+oIKbumW65cOQwNDV9b5vLlyyxatIj4+Hjs7e3Zu3cvz549Q09Pj1OnTpGenk5sbCx2dna51ps1axZTpkxhzZo1+Pn5YWhoyJgxY6hfvz6//PILAHFxcTRv3hyAgIAAjIyM2LdvH1988QVNmjQBYPz48dy9e5ekpCQWLVrEtWvXaNCgAZD9t8jKyorRo0ezb98+FEVhzZo1HDp0CHd3dzp37kxCQgKLFi1SZ/DNUa9ePR48eICDgwN37txBW1sbd3d3ddi4T8UnWZOqU6cON27coF69evTv35/Vq1er/2FyPHjwgBs3btC+fXv8/f1xdHRUp5SX3t7QoUMZPnw4rq6uLF26lKSkpFytQfv378+UKVPo3bt3rvVyrj4XLFjAnj176Nu3L4qiWddO27dv5/Dhw68c1QSyH7K3b9+e1NTU97bPYsWKUb58+VwvmaBeFhISgr+/P8uXL39tGUtLSywsLNRnzunp6WqLtdOnTwNgYmLCli1b1D5PkD1H3Y0bNwgPD+fChQtMmTKFzZs3U61aNVq0aAGAsbExS5YsYcmSJerP59mzZ7kuMPT09EhLS0NfXx8LCwsMDAwwMzPLFWNcXJzamvCrr75iyZIlfPfdd0B2q2oLCwv09fXVUdIBunTpwpw5c6hXrx6xsbEcPnyYLl26/LcTqcE066/Be1KiRAlu3rypVuGDgoKwsrJizpw5VKpUiSJFijBy5EhiY2OpUaMGNjY2ucbtCwsLy9WhWHo1a2trevToAWRPCOft7U3x4sWJi4tj/Pjx6Orqoqenx8SJE3Fzc6Nfv37Y2tpiYmKCmZkZlpaWdO3alfXr1+Pt7Y2ZmRmrVq1Sa7o55s+fn6e3KZo2bYqLiwuQ3aS4TZs2lCtXTh2D7cX5giC7f8zmzZspWbIkALNnz1anVdAkTZo0wc3NLb/DeK969+6t/u7evn2bBw8eMHbsWFatWsX06dMJCgrC2tqa/v37s3z5cqKiomjevDlNmzalcuXKrF27Fn9/f3R0dLCzs1N/br/99hv169enUaNG3Lx5ky1bthAQEED58uUpXry4+n80OTmZ6dOnA9kz+1pYWNChQwfGjBmDr68viYmJWFlZUbFiRfVW9/bt2/n666/p3r07t27domPHjhw+fJgNGzawefNmjh8/ztOnTzExMaF79+4UKVKE/v37ExwczKFDh6hcuTIAnp6etGjRgiFDhlC1alVOnTr10h2IUaNGYWZmhru7OwCjR4/GzMyMVq1afTR9sD77flLDhg1j7dq1GttX5GMTHR2dq9ktZDc4UBTlpe9SU1NJSUnBzMyMzMxMdHR08jrcf/X06VOmTZuWa9n48eOZOnUqgwYNwtbWli+//JLU1FQGDx5MrVq18inSt/ex95O6cOECRkZGuWoXJ0+e5Ny5c5QoUYKmTZsSHh6Onp4e5cqV4/jx45QtW5ZChQqxY8cObt26RZcuXTA3N+fIkSP4+PgA2c96DA0NsbGxUWfbffz4MUWKFFFHrGnUqBHm5ubqDL45y3JuO96/f589e/ZgZGREs2bN0NPT49ChQzRt2pSUlBT1fc4jBktLS2rWrMn58+e5ffs2kH0r0NXVlbCwMBo2bMiDBw+4du0a9evXV/d58OBBqlevTmxsLDExMdSoUYOTJ09SrFgxbt++rbasLV26NE+ePFE/ly9fHkdHx9eee03qJ/XZJ6mrV69SvHhxTE1N8zsU6SNkYWHBpk2bqFu3bn6H8tY+9iQlfTialKQ+ydt9byNn5k1J+i82btyoTjUuSdL7l+dJKj4+Xm0Nk8PFxSVXqxWATZs2ERQUxOzZs/91mzdv3qRnz57/ONisJH0Ifx/FWvr4jR8/HiEEVlZWtG/fntDQUHV6IIAxY8bkKh8UFISxsTGGhoZs3LiRtLQ0OnTogK2tLcuWLeP+/fvUqFEDb29vJk6cyKhRo8jIyGDSpEmMHj2aCRMmqNtq3bo1Z8+e5datWxgbG9O2bdt8GxpJU+R5kjIxMWHhwoWkpqZSs2ZNQkND0dPTIzExkVOnTmFpaYm9vT2RkZFcu3YNyJ4I7Pbt27i6ulKoUCFCQkIoWLAgz549UzuqBQUFcenSJaKjo3F1dcXQ0JAbN25w8+ZNbG1tKVOmDFevXkVHR4eIiAiKFy+OnZ0dz54949y5cxQqVIiqVavm9en4JKSlpbFgwQL1s46OjtoySZI+NlOnTmX58uX8/vvvREREULBgQYKCgujfv/8ryx8+fBg9PT2WLl1K//79MTMzo3379vzvf/9jw4YNfPvtt/Tp04erV68yY8YMNUlNnjyZH374gYkTJ7J8+XI10c2ePZtOnTpx//59GjVqRHh4eB6fAc2SL7f77Ozs1PvMdnZ26OnpUbVqVaytrTl58mSuK5Xjx4/j7e1Ny5Ytadu2Lc+ePaNhw4ZYWVmRlpZG1apV1VpYmzZtiImJoUuXLnTs2BEPDw+qVq1KaGgo9+7dY9y4cezZs4dKlSpx4cIFLly4wKhRo4iKiuLu3bt06NCBKVOm5Mcp+ajFxsYyYsQIunfvTqlSpdQm5ImJiSQmJlK0aFHS09OJi4ujSJEiJCQkoKurK8dOlDTW8ePHuXbtGkOHDuX8+fNERkYSGBioziv1opwGPyVLlmTLli20bt2azZs3c+LECa5du8aFCxfYvXv3P45nmTMVSPXq1QGoWbMmHh4ezJs3j+Tk5M+6+4HG9JO6dOkSTk5OlC1bVp22GbKncTY1NcXa2prk5GQ1ue3fv5/bt2+za9cuHj16BGSPH9e7d2/u3LnD6tWrcXBwIDg4mLp166pD2/Tq1YtTp05RsmRJwsPD1YfeLi4ubN++Pe8P/BPSuXNnevToQffu3Xn27BlFihTB2dkZAwMDdHV1qVixIrt378bJyYmNGzfmd7iS9FodO3bE19dXnR7ezs6OLl260KhRo5fK5lyUbdy4kd9++434+HgcHBxo2rQpBw8exNbWlvr167N+/frXjvfYvHlzunTpkquvZmZmJtra2p91ggINajihpaWFj48PXl5eWFlZqYlKW1ubOnXq0KxZM+rXr6/+wDIyMtTOk69qNaKtra1+b2FhgZ6e3kudLSMjIwH48ssv8fb2lp1531Hz5s3R1tbGysqK33//nT179qAoCo0aNSIqKorZs2fTtm1bXFxc1P5VkqSJDh48yJkzZ9TnQbdu3VInX3VyclKHXIPsmlRGRgZubm4MHjyYJk2aMHXqVNatW8fmzZuZP38+lStXpmDBgmhpaTFr1iy11VxOy7kTJ04A4OXlBWRP8Lpw4UK1T9TnTGOSlLOzM3369CE8PJzFixery7t27YqHhwe3b9/m0qVLame7nDlcunXr9srx3nx9fZk7dy76+vpkZWXx9OlT+vTpk6uMtbU1TZo0oWPHjjx8+JB+/frh7OxMYGAgYWFhH/BoPw3W1tZqz3vIHtg35+cya9Ys9X57Tt+RnEYG8tmfpMkOHjwIZPd7cnd35+bNm9SuXVv9/sUEBagdZUeMGMHSpUvZt28ft2/fxtzcnCJFijB58mSGDx9O06ZNefDgAQsWLMDExITY2Fgg9+zilpaWzJ0796Vtf87yrZ+UEIKEhASMjY3R0tIiIyODZ8+eoaOjg5mZGc+fPyczMxMDAwPi4uJ4/vw5RkZGGBgYYGxszJkzZzA1NaVIkSLo6OgQHx+PiYkJ6enpZGRkYGBgQFJSEklJSejr62NiYkJqaipaWloUKFCAxMRE9PX1EUIQHx+PlpYWhQsXVmOT03a8GV1dXR4+fEipUqU4d+6cmqS6du3Ktm3b8PHxYfPmzdy6dYsOHTpQrVo1lixZwpEjR147+sGLiU96v14cSUXT+0k9ffqU4sWLk56ent+hfHa6d+/O6tWref78+XubleCz6sxrbGxMeHg4JUqUeOdtSe8uIyODGzduULZsWQoUKABkDxczdepU2rRpo45ZFhUVRdmyZXn06JF6W1DKP5qepDIzM9HX1+e7775j5syZ+R3OZ8XExIT69eu/1+f0n1WSkiTp3Wl6koLsgYvnzZtHYmLiS2M6Sh/GkydPsLS05OrVq5QvX/69bfe/JimNad0nSZL0d6NHjyYrK4utW7fmdyifjXr16qGnp6cxkyPKJCVJksYyNTVlxIgRdO7c+ZObJ0kTTZ48mZs3bxIaGqoxAz7LJCVJkkabOHEitWvXpnbt2rla/krvT3JyMqNHj2bMmDEMGTLkpQkg81OeNkF//vw5Z86cyctdSpL0Gn+f+VdTaWlpcfToUQYMGED//v1ZuXIlPXr0wMPD4x9n5JX+3Y0bN/D392fx4sUkJyezcuVKOnXqlN9h5ZKnDSf+Pi+PJEn5IyUlBR0dHUxNTRkwYEB+h/PGQkJC8PPzIygo6L3OhPw5K1myJA0aNGDChAkftMX0R9G6T5Ik6X0JDw/n+vXr+R3GR61WrVoULVo0T/Ylk5QkSZKksWQTdEmSJOmTI5OUJEmSpLFkkpIkSZI0lkxSkiRJksaSSUqSJEnSWDJJSZIkSRpLJilJkiRJY8kkJUmSJGksmaQkSZIkjSWTlCRJkqSxZJKSJEmSNJZMUpIkSZLGkklKkiRJ0lgySUmSJEkaSyYpSZIkSWPJJCVJkiRpLCUvd2ZqapqXu5MkSZL+o6ioKAwMDPI7jLxNUsWLF+f06dN5ucuPzrRp0xgxYkR+h6HxhgwZwqxZs/I7DI138uRJatWqld9haLRr165RsWLF/A5DowQEBGjMTOx5mqS0tbUxNjbOy11+dPT09OQ5egP6+vryPL0BAwMDeZ7+RcGCBeU5+htDQ8P8DkGlA4x908Jjx75x0VeaP38+/fv35/nz57i5uVGtWjUGDRpEkyZNWLFiBVpaWmRkZDBv3jwiIiI4deoUZ86c4cCBA9StW5fExERCQ0NxcXGhQYMGREVFce/ePXbs2MHly5e5fv06qampdO3aFWdnZ3788UdKlixJVFQUxYsXZ8KECQBs375dvbps1aoVpUqVYv78+cTFxaGvr8/58+dRFAUTE5N3Ot7/IjAwEE9Pz5eWz5kzB11dXRYvXoyJiQkzZsygSZMmtG3bFh8fHwYPHoy+vj4jRoygVKlS9O7dmy5duuDn54eRkREPHz4kKioKS0tLtLS08vy43re9e/fi7e390vJ+/fphbGzM9OnTsbe3Z8aMGRQqVIjU1FSGDx9O8eLFGTZsGG3atGHVqlWMHTuWDh060KRJE+zt7Zk5cyampqaEhYUxe/Zsypcvj4ODA8OHDycpKQkjIyO+/PJLzpw5Q2JiIgULFqRmzZq0a9eOpUuXUr58eTZv3syOHTsoWrQo5ubm+XB2/s+9e/ewtrbOtWz8+PGUKlWKhQsXqr8vDg4OnDlzhuPHj5OYmEjp0qU5f/4806ZNQ1EUZsyYQdmyZdm5cycPHjygT58+fPPNNwDcunULV1dXBg4cyOrVqzl9+jTHjh0jIiKCgwcPkpSUxPr163F3d6dKlSrY2Ngwd+5cHB0dmTNnDp6enowbNw5jY2Nat25Nr169GDBgANbW1qxcuRJ9fX0MDAwwMDCgSpUq1KlTh7CwMG7dusXixYvR1tbm119/xc7O7j89Unjy5AnFihVTPy9ZsoTIyEiOHz9ObGwsU6ZMwcrKitGjR1OwYEEmTpxIqVKliI2NpUWLFvTs2ZM///wTCwsL9uzZw9KlS3ny5AnBwcH89ddfBAYG4ubmxrVr19i/fz89e/bE2dkZb29vevbsiY6ODj/99BO6urrMnz+fe/fuUbhwYbS0tBgzZgwbN26kePHizJ8/n/r16zNz5kyeP3/Orl27WL58OU2bNgVg0KBBGBkZsX79evT19dHS0qJ169bY29uzaNEiHB0d3zj53Llzh5IlS6Krq/vW5/N1xo0b95/Wy9Oa1IsePnzI6dOnycrKQl9fn1OnThEdHY2Pjw8ZGRl06tQJgL59+1K6dGl1PSEEQgh27doFgI+PD0eOHKFNmzZ4e3tjaGiIqakpVapUISUlhV27dqGlpUWVKlWwt7fH09OTKVOmMGjQIAAiIyM5ePAgWlpafPnllzRu3Bhzc3O2bt2a9yflHyQnJ6u3SosWLcru3bsxMTEhLCyMmTNnMnz4cMqWLUtcXBwhISE4ODiwatUqdf2c81WtWrV8iT+vlCpVCg8PD/bs2UNUVBRhYWHo6uri7u5Oeno6f/31F4mJiQgh8PPzw8XFhdjYWABOnz5NamoqhQsXxtramnPnzmFnZ4eBgQHz58/HyMhI3c/hw4cxMzPj66+/pmPHjkyYMIGSJUtStGhRHBwc0NfXx8HBIb9Ow7/auXMnP/74IwBBQUE8f/6cI0eOkJCQQOXKlQHYtGkTEyZMoGDBgty7dw+AR48ekZSUhK2trbqtwYMH8+2333Lq1ClOnjzJvHnzgOzf8W+++YZBgwbh4eFBamoqU6ZMwcvLCy8vL7Zv365uIzU1FYCaNWuyZMkSABwdHYmKiqJ69epquSpVqjB+/Hjat29PWloaJUuWpGHDhtjb2zN9+vT3dgs4LCwMRVEoU6YMWlpanD59Gi0tLUxMTAgPD2fXrl1UqlSJ2bNnA6gXO5BdM+vcuTMAEyZMUP/fZGRkAFCpUiX27NnD/Pnz1SQQFRVFQEAA33zzDSdOnADg+fPnQPbv/pkzZzh79iwA8fHxXL16lfj4+Fwx52z/2LFjpKSk8M033yCE4PTp08TFxVGgQIH3cm7yWr617itUqBDu7u5ERUWhpaVF06ZN8fX1xd7eXv2jcfv2bZ49e/bK9X19ffH19SUxMZE5c+Zgbm7OL7/8kquMkZERvr6+9OnTJ9cVwYtXE46Ojvj6+pKamkrBggWZMGECixcv/gBH/O7c3d3p1KkTZmZmeHh44OvrS+XKlTEwMCAlJQWA6OhoChUqxFdffcXZs2fV/8g55+tTqEW9idTUoejnYQAAIABJREFUVAoVKoSXlxe+vr7UqFEDPT093N3dWbZsGWlpafj4+GBlZUVoaCiQfX5NTEzUPw45rKys2LdvH+vXr0dbO/tXpkuXLvj6+lKiRAkMDQ2pUaMGe/fuzfPjfBv37t37f+3df3zN9f//8dt+MNvZ2IbNhM383MZWoaEQ1fRGhZKIhIpE+v1Deb/75Ufy7tcKEe/kHSpFQoVUbN6T34zJMGZjxn7br7Mf5/vHLs43b97vdx/mnKd1v14uu1y2s3PO6/F6ndd2P8/X63WeDw4cOHDB7YWFhQAMGTKEKVOm8NNPPwFVh1RPnToFYF/vZs2aER0dTVZWlv3x5eXlZGdns2nTJvvfWV5eHsuWLaNBgwYAZGdnc+zYMfvy09LSLvpPMyoqirKyMvLy8v7jesyYMYPVq1efV19ZWVm1HvmIjo6mb9++3HLLLfY3Ob6+vnh7e9O1a1fGjBnDLbfcQkREBCNHjuSZZ57Bzc0N4LxtU1ZWdt7zWq1W+vfvz8MPP8xLL71EUVERUDXKuPfee3nmmWcuqMXV1ZWuXbuycOFCXF1dCQgIoGvXrhe9L8CIESMYM2YMwcHBuLu707VrV2rVqnVBLVcLp4yk3Nzc6NWrF5GRkdx8883k5eWxfft2Tpw4QVRUFL169eLNN98kPj6ekJAQbrnlFqZOncqxY8eYPXs27du358svvwSgd+/exMbG4u/vT3R0NADNmzcHqoLw3P3Gjh3Lv/71L/bs2cOECRPstVRWVtqH0wBNmjQ5b+hvihYtWhAZGQlAcXExHTp0oFGjRrRt25Zx48YxefJkfH19qVevHt27d6e8vJxJkybx1FNP4eXlZd8Od9111wWHf2qSlJQUXnnlFdq0aYOXlxcpKSl8+eWXtGrVitDQUPs23LhxI3//+9/x8PDg/fffp2PHjkRGRpKTk0NhYSHBwcFcc801AHTu3JmhQ4dy4sQJ3N2r/mTWr1+PxWKhb9+++Pn5cf/997N27Vqg6ipWE/ehWrVqMWvWLOrUqcNjjz3GhAkT8Pf3x8/Pj5YtW/LJJ59QUlJCr169gKpDp88//zwRERHYbDY8PDxo164dERERZGRkAFVHIiZPnkyXLl148cUXGTlyJM899xwuLi4MHjwYPz8/pk+fzpEjR5gzZw6xsbHMmzePPXv2MHXqVJKSkoiNjcViseDt7U1ISAjXXXcd27dvB7Bv73PatGlD8+bNCQ0NpVGjRjRr1oy3336b9PR0XnjhBd5//30ef/zxy9pOQUFBtG/fnqCgIAA6dOhAZGQkXbp0obS0lLy8PL788kv8/f25//77OX36NA888ABQdQ7w7rvv5rnnnsPDw4OBAweSn5/PpEmTcHFx4fHHH+evf/0rOTk51K1b1x7UsbGxBAcHExMTw4033sjUqVOpX78+AwYMYPv27fb9FiAiIsL+c2lpKbGxsTRp0oTQ0FA8PT2Jj4/n5MmTtG7dmvDwcCIjI+nWrRsVFRWXtV2cxQX4w5dwXO7VHuHh4ezfv/+ynqOme/3115k8ebKzyzDehAkTiI2NdXYZxouLi+Omm25ydhlGS0pKIiwszNllGOWnn34iOjoaLy+vanvOSz2Kow/zioiIsRRSIiJiLKdd3SciYqKxY8fSuHHj826z2Wz87W9/c1JF/1taWtoFF0bYbDZCQ0OdVFH1UUiJiPxORkYGc+bMOe+2f/8Z4Mknn+Sdd94hJyeHpKQkunbt6qgSL7Bq1SrGjh173m1Hjx51UjXVS4f7REQuwXPPPcejjz5K06ZNiY6O5p577qF///6UlZURGRnJzJkznV3iBXbv3m3/yMXXX3/t5Gr+GIWUiMglCAoKonHjxuTl5eHm5kZ4eDhNmjThs88+o0GDBgwZMsTZJV4gKSmJQYMGAVUzbWzdupUBAwaQnJzs5Mr+M4WUiMgl6ty5s/1DvBaLhaZNm2K1Wnn11Vd5//33nVzdxX3//fdMmzYNqJpVZOnSpbz22mtOruo/0zkpEZHf2bt3LyNGjDjvtpycnAvO+QDccsst9u+HDh2KzWajWbNmHD16lGefffaK13opPDw88PHxISUlBQ8PDwoKCpxd0n+lkBIR+Z3Dhw//4fuemy4KquaNPCckJKRaa/pfevfuza5du8677fe1ndOrVy/q1q3L+PHjOX78OLVr1yYlJeWCKeVM4tAZJ3r16nXVTs3hKHl5edSrV8/ZZRgvMTGRdu3aObsM41mtVmrXru3sMoxWXl5+wfRLf3Y2m421a9dSp06danvOS51xwqEhJVJdYmNjz5uDUUTMppASERFjae4+ERGpcRRSIiJiLIWUiIgYSyElIiLGUkiJiIixFFIiImIshZSIiBhLISUiIsZSSImIiLEUUiIiYiyFlIiIGEshJSIixlJIiYiIsRzWROXw4cPs2rWLDRs2OGqRl+yaa64hPT3d2WXUWAEBAURGRrJ+/XpnlyJONnHiRKMb7v1fdO3alc2bNzu7jMsWEhJCaGgo/fv3x83NzdnlOC6ksrOzSUhIYO7cuY5a5CW77777WLp0qbPLqLGioqLIy8u7KvYFubKGDBlSY/YDb2/vGrEu7u7uTJs2zZjWTA4LKS8vL959993/ep8GDRrQrl079u/fT2ZmJlFRUezevZvIyEj27NmDm5sbERER7Nmzh9atW3Pq1CkqKysJDAykfv36eHp6UlpaSkZGBtnZ2Vx33XVAVUD6+vqyceNGbrjhBnbt2oXVar2i69u6dWtKSkoIDQ0FICMjg7p16+Ll5UVhYSGnTp0iMDCQHTt2cNNNNxEXF0dFRQXXX389ycnJ1K5dGxcXF/z9/Tl48CChoaGcOHGCjh07EhcXR1RUFLm5uXh5eREYGMjJkyf57bff6Ny5M3Xq1CEvL48TJ04QFhZGeXk5cXFxV3R9Tebt7U2zZs0ICAgAoLKykqSkJCIiIgDYsmUL119/PTt37uSaa67B3d2dpKQkAgMDCQsLA6pev+TkZG666SZSU1NJSUkBoGHDhkRERFBUVMSvv/5Ky5YtadKkCWVlZcTHxwMQGRmJv78/x48f5/Dhw4SEhHD06FFatWqF1WqlefPmWK1WNm/ejLu7OzfddBNnzpwhMTHRvm9ERUWRlJSE1WolOjqaLVu24OHhQZcuXezLvvnmm+3rvGvXLq699loKCgrYvn27Izf3ZatduzZRUVFs3bqVbt26ERcXR2RkJLt377Zv64qKCvvfVlZWFnv37sXPz4+oqCjKy8uJj4+nW7duuLq6kpeXx86dOwkNDeXIkSNER0djtVrZuXMnHTp0wMfHx779HaFRo0a0bdsWgAMHDlBcXMx1113HoUOHyMnJoVOnTgDk5OSwe/durr/+enbs2IGLiwvdu3fnl19+uaL1lZeXM2nSJMaPH39Fl/NHOeyclKvr/17UV199RVhYGN9//z0+Pj68//77AHzwwQcADBo0iJ9++gkPDw9efvllvvrqK6655hpGjhzJ9ddfz6xZs7j22muZMGECN9xwAz169GDhwoV07dqV2NhYWrRowfz58694QAEsW7aMzp07M2jQIMaNG0dISAgzZ84kLCyM5s2b06dPHxYsWICXlxdfffUVnp6e9nWdPHkyMTExDB06lFdeeQWoOizStGlT1q9fj4+PD4sWLeLJJ59kzZo1REdHs2jRIqKioli0aBFhYWG0bduWW2+9lREjRhATE8OSJUuu+DqbKjIyksmTJxMWFsbXX39NmzZtuOOOO4iKiiIsLAyLxcKSJUu46aabePXVV5k4cSIA9erV4+677+bhhx8mMDCQ7du3ExERwapVq2jSpAkAffv2ZdiwYTz99NM88cQTPPvss4SFhREZGWlf/gcffEBkZCQ//vgjt956K+PGjQNgzpw5DBs2jEGDBjF48GDeeecdpk+fzh133MGzzz5LQEAAK1euBGDGjBkEBQVx22238eOPP+Lj48Pw4cOJiYlh/Pjx+Pj4sGbNGsLDwwkLC6Nbt27069ePF1980b4+Vwtvb2/mzJkDwKpVq3B1dWXbtm34+Pjwww8/8N5779GzZ0/uuOMOXnrpJVq0aAHAddddxyOPPMLIkSN5+OGHWb16NVFRUSxfvpyYmBgmTpzIK6+8wiOPPML48ePp27cvb731FmFhYbRp08Zh69e4cWMeeughHnroIRo3bsymTZvo2LEj69evJyoqittuu43Y2FhatmyJh4cHmzdv5uGHH6ZWrVqsXbvWYXWawmEh9b+6MkZERLB27Vpmz57Nhx9+yIMPPnjB4+fNm8d7771Ho0aNADhz5gx9+vQBYPbs2Zw5c4bZs2cDcPLkSRYuXMiuXbuYM2cOUVFRfPXVVwwbNuwKrN3Fbd26lS+++ILk5GS+//57AgIC6N+/v/3d+fr16/Hz82PhwoXnPa5bt272d1r/Lisri1deeYWTJ09SWVkJwC233EJISAgnTpygTp069O/f3/54f39/wsLC7O/q/8xmz55NSUkJ8+bNA6Bfv37079+fiooKjh49SkBAwHnnIg8ePMiaNWvYsmULiYmJ+Pv7M2vWLB588EFuueUW+/1uuOEGIiMj2bp1KwD9+/enS5cu5y27sLCQioqKi75Z8/X1pU2bNuzYsYOhQ4fy9NNPM2LECDIzMwFISUnhxhtvBKoORU+ePJlHHnmEkydPcuedd5KTk4OLiwsuLi7cdddd9n+4K1as4J577uH222+vxq3oHHPmzOGJJ56w/5yYmMiSJUtITU1lxYoV9tuzsrI4deqU/XV0c3Ozj6ag6m9r9OjRjB49mtWrV+Pv70///v3p3r27w9Zlx44dLFiwgAULFrBjxw4SEhKYOXMmU6ZMITIyko8++ojExES++uorOnbsyKJFi3juueccVp9pHHa473+F1L59+5gxYwZdu3ZlzJgx9hGEp6cnbm5uNGjQgPLych599FGaN28OwNSpU1m8eDHffPPNH6qhYcOGHD58+PJW5DJkZmYyaNAgbDYb999/P7/++isvvPACxcXF591v5MiRrFu3jrfeegsXFxc8PT3x8PAAIC8vj7FjxzJq1Ciio6MBmDBhAv369aNdu3akpqYyaNAgKisrueuuu/j222+Jj49n0KBBDl9f0w0bNozi4mIKCwsB6NSp0wWvxTklJSVYLBY8PT3th1rPeeONN0hKSuKpp57CarVesK1tNhuLFy9m/vz5hIWF4eHhgbe3NxUVFUDVEYScnBzCw8PZt28fPj4+1K1bl+DgYACaN2/ODz/8gLu7O7169aJPnz7s2rXLfnj32muvZcyYMZSVlXHvvfdis9m4+eabsVgs+Pv7O3WfvxSVlZW4ubnZ9/lzQkNDCQwM/K+PTUlJ4e2337a/Gfjwww956KGH8Pb2BqreLLRt25bg4GD8/f1JS0tj6NChTj3/EhERgcVioV27dmzcuPG83w0aNIh+/fqddwFD3bp1KS8vp6ioyNGlOoUxIymAzz77jLVr11JQUICbmxtLlizh9OnTLF68mE6dOhETE0NQUBD+/v789ttv5OfnM27cOE6ePAlgP6acmJhIYmIiRUVF9ne3535/9uzZK7OC/2bbtm2cPXuWjIwM+/mgI0eOsHz5cv7xj3+Qm5tLeno6AQEBlJeX2x+3c+dO8vPzeeaZZ0hPT2fevHmcPn2akpIS8vPz2bRpEx999BErVqygvLychIQEZs2aRYsWLfjpp59ITU1l+fLlzJ07l8zMTA4dOsTZs2cpKSlxyHqb6PTp0+zfvx/A/locOnSIxYsXs3z5ckJCQti8eTNnzpxhw4YNHDt2zP7Y7OxsfvvtNwoLC7nnnnvIzMykffv2LFu2DKj6hzpmzBjeffdd/va3v7F3716WL1/O8uXL7c9RVlZm/z4pKYlatWqRkZHBa6+9xrFjx0hNTSUrKwur1cqIESM4efIk8+fPJyEhgU2bNgGwZ88eIiIimDhxIkFBQezYsYN9+/bxyy+/sHDhQt566y22bt3K119/zfLly6lduzbPPfcc06ZN47XXXrvi27g65ebmMn36dLKysnjrrbew2Wxs376dkSNH8t1335GYmEh2djZnzpw571xrTk4OSUlJ9p/j4+Ox2Wxs2rTJ/j9h4sSJfPPNN/z1r39lyZIleHp6snz5cj799FOHrmN5ebn97/6NN97g1KlT5Ofns3r1amw2G4cOHQKqRtlBQUFce+21DBgwgI0bN7J8+XKmTZvm0HqdyQX4w28hLufdxsGDB3nsscf4+eefL/k5HEVX911ZUVFRdO/endjYWGeXIk72008/0bNnT2eXUS2eeuop3n77bWeXUS2GDBnCggULcHevvoNtf2SgcjEOG0nZbDbeeustHnroIUctUgx24sQJZ5cgBnj55ZedXUK1OXeu82rm5eXFtGnTGDNmjLNLsXPYSCopKQmbzUZ4eDg2m83o46mlpaUXHA+X6rVq1Sr69evn7DLEyTZs2ECvXr2cXUa1OH36NA0bNnR2GZfFYrEAVYdKo6OjjRhJOezCid8HnIuLi31jmKi0tNTo+moKbWNxc3OrMftBYWFhjVkXkzj0cJ+IiMj/hUJKRESMpZASERFjOSykzs2OICIi8kdpJCUiIsZSSImIiLEUUiIiYiyFlIiIGEsXToiIiLEcFlIiIiL/V0a16hAREfk9hZSIiBjLYSF1sbbZIiIi/41D28cfPHjQ6BYd5+Tn51O3bl1nl1Gjpaamsm3bNmeXIU527NixGrMf5Obm4uvr6+wyqsW+ffuIjo52dhmAg0OqdevWhIeHO2qRlyw7Oxt/f39nl1GjHT58mI4dOzq7DHGyzMzMGrMfZGZmEhAQ4OwyqkVpaamzS7DTOSkRETGWQkpERIylCydERMRYGkmJiIixFFIiImIshZSIiBhL56RERMRYGkmJiIix1KpDRESMpaaHIiJiLIWUiIgYSyElIiLGUkiJiIixHDYLelFREdu2bWPv3r2OWuQlO3v2LN7e3s4uo0b77rvvnF2CGOCXX36hoKDA2WVUi5rU4mfnzp1/vlYdderUoUePHmrVIXaDBw92dgniZD4+PvTp08fZZVSLmtSqo0mTJs4uwU6fkxIREWNpxgkRETGWRlIiImIshZSIiBhLISUiIsZSSImIiLF0NYOIiBhLM06IiIix1KpDRESMpZGUiIgYSyElIiLGUkiJiIixFFIiImIsXTghIiLG0khKRESM5bB+UjabjTlz5tC0aVNHLfKSqenhlbdr1y5SU1OdXYY4WWJiIvv27XN2GdUiLy+PevXqObuManHw4ME/X9NDm83G2LFj1fRQAPj888/V9FBYs2aNmh4aKD4+3tkl2OmclIiIGEvnpERExFiaYFZERIylVh0iImIsh4WUq6sGbSIi8n+jkZSIiBhLISUiIsZSSImIiLEUUiIiYixdOCEiIsbSSEpERIylkBIREWMppERExFgKKRERMZYL8Idnfr2cSWK3bdvGxx9/jJub2yU/h6MUFhZisVicXUaNlpycTKtWrZxdhjhZTdoPCgoK8PHxcXYZ1SIlJYWVK1fi7l593ZwudaDi0H5Sjz/+uPpJCaB+UlJF/aTM9KfsJ6XDfSIi8n+lkBIREWMppERExFiacUJERIylkZSIiBhLISUiIsZSSImIiLEUUiIiYixdOCEiIsbSSEpERIylkBIREWMppERExFg6JyUiIsZyWHJcTpsPERH5c3JYq468vDwOHTpEaWmpoxZ5yXJzc/H19XV2GTVaYmIirVu3dnYZ4mR79+4lKCjI2WVUi6ysLOrXr+/sMqrF3r17iY6OdnYZgANDytvbm5CQkKtih/T09FRIXWHNmze/KvYFubJCQ0NrzH5Qu3btGhNSjRo1cnYJdg5telivXj2jVv4/qV27tpoeXmEWi+Wq2BfkyqpJ+4Grq2uNaXrYsGFDZ5dgp3NSIiJiLIWUiIgYy2EhVVlZ6ahFiYhIDaGRlIiIGEshJSIixlJIiYiIsRRSIiJiLF04ISIixtJISkREjKWpyUVExFjqJyUiIsZSPykRETGWRlIiImIsh82C7uLiwqJFiwgODnbUIi9ZQUEBPj4+zi6jRtu6dSs5OTnOLkOcbNeuXaSmpjq7jGpRk/rQJSUl/fn6Sbm4uDB8+HDCw8MdtchLlp2drVYdV5ifnx+DBw92dhniZGvWrKFPnz7OLqNaZGZm1phWHfHx8c4uwU7npERExFg6JyUiIsZSSImIiLEUUiIiYiyFlIiIGEsXToiIiLE0khIREWNpeCMiIsZSqw4RETGWQkpERIylkBIREWMppERExFgOC6nKykpHLUpERGoIjaRERMRYDmvVYbPZ+Pnnn6+K3jF5eXnUq1fP2WXUaLt27dI2Fn799dca80H/mtTiZ8+ePX++flI2m42bb75Z/aQEqHojcPvttzu7DHGyysrKGrMf1KR+UiY1fdU5KRERMZbOSYmIiLEUUiIiYiyFlIiIGEshJSIixlKrDhERMZZCSkREjKWQEhERYymkRETEWA4LqZoy9YmIiDiORlIiImIshZSIiBhLISUiIsZSSImIiLEc1qrD1dWVf/3rXyQkJDhqkZesqKgILy8vZ5dRox04cIDCwkJnlyFOlpaWRkZGhrPLqBYFBQVGtbi4HLt27frz9ZMqKiqic+fO6iclAHz++ecMHjzY2WWIk61Zs4Y+ffo4u4xqUZP6ScXHxzu7BDvN3SciIsZSSImIiLH0CVsRETGWZpwQERFj6RJ0ERExlkJKRESMpZASERFjKaRERMRYunBCRESMpZGUiIgYSyElIiLGUkiJiIixFFIiImIsXTghIiLGclirDhcXF0pLSykpKXHUIi9ZSUnJVVHn1cxqtWobS43aD66W/29/RGlpqbNLsHNYSAG4ubnh7u7QRV4Sd3f3q6LOq9nVsi/IlVWT9oOati6mcNgWtdlsV80//6ulzqtZTfqDlktXk/aDmvR/w6T1UD8pERExlkJKRESM5bCQqqysdNSiRESkhtBISkREjKWQEhERYymkRETEWAopERExli6cEBERY2kkJSIixlJIiYiIsRRSIiJiLIWUiIgYS00PRUTEWC7AHx7iXM5oaMWKFXz22WcEBATg6upqb4JYWVl5wVdFRcVFbz/3de7xbm5u9u9//3Wx220223997t/f7u3tjbe3N2lpaX/ouX9/u4uLyx9en9/ffrHn/F/LNHX7nfsC/uNzp6enExwcrO13iduvpux/2dnZ5/1PuFq3X9OmTcnPz6e4uLhG7H8JCQkcPny4WmdDv9SBisPmYy8vL+fVV18lPDzcUYu8ZNnZ2fj7+zu7jBrt888/Z/Dgwc4uQ5xszZo19OnTx9llVIvMzEwCAgKcXUa1GD16tLNLsFNPdxERMZZCSkREjKWQEhERYymkRETEWAopERExlkJKRESMpZASERFjKaRERMRYCikRETGWQkpERIylkBIREWMppERExFgKqYuoW7eus0uo8W677TZnlyAiVwGHtepITk7m8OHDl/x4Eal5XnzxRcrKypxdRrWoqKjAzc3N2WVUi9zcXI4dO1at63OprTocFlIiIv+uT58+TJ482dllVIutW7fSqVMnZ5dx2crLy+nXrx95eXnV+rzG95MSEfl39erVo0uXLs4uo1pkZWXViHWxWq3OLuE8OiclIiLGUkiJiIixFFIiImIsnZMSEePl5+df9MKtevXqAXD8+HGKioq45ppr8Pb2xmazkZ+ff8H9PT09qV27tv2igHOPr6yspKCgwP6zmEMjKREx3pAhQ2jQoMF5X3fccQdFRUX07t2b0NBQ2rVrR3BwMCkpKRQXF19w/wYNGnDgwAGsVisNGjQgKirK/vwFBQU0aNCA+Ph4J66lXIxCSkSMt3r1asrKyujUqRNhYWGUlZWxceNGxo8fT3x8PGvXriU7Oxt3d3c6deqEl5cXZWVl7NixA4Ddu3dTVlZGZGQky5cvx83NjfT0dHbu3OnkNZP/RSElIletRYsWMXr0aHr27ImPjw/x8fHk5eWxZcsWANq3b3/BY3744Qduuukm2rRpU2M+o1WTKaRE5Kp07NgxADp27Gi/7dw5pXMjqIv57LPPuPPOO3nuuedITEy8skXKZVNIichVKTg4GIBdu3bZbzt3scT1119/0cd88MEHVFZWMn36dJ5//nnS09NZuXLllS9WLplCSkSuWkOHDmX+/PnExcVx9uxZbrvtNurXr090dPRF7//tt9/SunVrhg8fzqRJkwgNDeXDDz+0/z4xMZHdu3fbv8T5dAm6iFy1YmNjOX78OD179gSgfv36xMXF/cf7x8XF8c477/DII48AVSOvWbNm2X8/fvx4+/ePPfYY77777hWqXP4oTTArIk4zZMgQlixZctnPc/LkSUpKSmjevHk1VHVpVq1aRb9+/Zy2/OpitVpp2LChJpgVEakuQUFBzi5BrhCdkxIREWPpcJ+IOE2vXr3w9fV1dhnVoqY0PaysrCQpKYnffvutWp9XTQ9FRMRYlxpSOtwnIiLGUkiJiIixFFIiImIshZSIiBhLISUiIsZSSImIiLEUUiIiYiyFlIiIGMthc/ctW7aMIUOGOGpx4kQWi4VBgwY5uwwxSHl5OStWrCA7O/uSP9Qpf06aYFaqnZ+fH/PmzXN2GWKQkpISVqxY4ewy5Cqkw30iImIsp42kmjVrxr333gtUNSLz8vIiPT2d3377jSFDhrB27VpGjhwJQGFhIbNnzyYkJISnn36a48eP89577zF48GDWrFlDeXk5t99+O0uXLqVFixb07NmTjz/+GA8PDyZOnEjTpk355ptvOHbsGA0bNqRRo0YcOHCA/fv3c//99/PZZ58xcOBAevbsybp1685rJ/3kk0/i5ubGwYMHWblyJY8++igWiwWAJUuW2A9hFhUV2ZunTZgwgU8//ZS8vDyGDx9OYGAgAMuXL2fAgAH25z5y5AihoaEsXryYEyeOZJ3QAAARI0lEQVRO8MwzzzB37lweeOAB6tSpA1QdJu3RowcLFy6ke/fuZGVl8Ze//MX+HLNmzaKoqIhhw4axdu1arFYr3bt3Z8eOHYwePRqLxcLs2bOpX78+N998MwC7d+9m3bp1ADRt2pRx48ZRVlbGhx9+SEBAABERESxdupSJEyfy0UcfMW7cON5++20A7r//fn766SdcXFyIiopizZo11bxniIj8f04bSbVs2ZImTZoQFxfHunXruOOOO2jfvj0Ajz76KA0bNuS+++4jLi6OmJgYoqOjSUpKYsmSJVitVoYOHcrEiRNp1KgRDRo0YMyYMQA8++yzTJw4ET8/P0JDQ4mIiOD999/n+eefJzw8nFtvvZUHH3yQxYsX4+Xlxbhx4+jXrx+jR49m1qxZjB07lgYNGtjrHDBgAHFxccyYMYN27doxadIk4uLiiIuLw2q18sQTTxAXF8edd95Jw4YNCQgI4KGHHuLhhx8Gqjp9HjhwADc3NyZOnEhcXByRkZGcOXOG5ORkpkyZwpQpU7jnnnt444038PX15d5777Uvo2XLlnz88cf85S9/4fbbb6devXps27aNV199lc2bN2O1Wu3LCQoKwt/fn2HDhvHAAw9QXl7O999/z7PPPkv37t1xcXEhLi6Oo0eP2tfvhx9+4McffyQtLY25c+fSsWNH5syZg5+fH6+//jqenp5MnTrVfv9Tp04xefJknn/+eTw9Pa/4fiIif25OPdwXGhpK165dOXDgwEV/X79+fUaMGEHjxo05dOgQZ8+eZfPmzbz77rv84x//AGDlypWsWrUKgDp16hAWFsZ7773HI488QlZWFm3btuWFF15g9uzZ502jv2nTJkaPHg1A9+7dmT59OkVFRfz888+Ul5efV0dCQgLfffcdbdu2BWDGjBm8/vrrQNXMvsHBwTRp0oTTp08zZcoUxowZw9ChQ3F3rxqo3nnnnfTr14/4+HgSEhI4c+YM27ZtIzU1leLiYoYMGcLTTz9Nfn4+AGFhYcyYMcPeynrt2rU88cQTWCwWCgsL+fXXX6msrCQhIeGCWs/ZvXs3gwYNYvTo0SxduhSAO+64gxkzZpzXvTQ/P5/169czd+5c/Pz8APj222+ZPXv2RZ93/fr1REdHc+ONN/LVV19d9D4iItXFqRdO1K5dm8TERLp168aIESPs78w9PDwASE1N5dFHH2XHjh1UVFRQu3ZtXFxcaNq0KZ06dQKqAqCkpIR58+bRvXt3goOD7Ye55s6dy8iRI0lKSiI7O5tnnnnGvuxPPvmE6dOnA3DgwAG6dOnCzp07adSoES1atGD79u3n1dqhQwe+/vproCrUABo2bIirqys5OTkMHDiQWrVq8cADD9CsWTNCQ0MJCQkB4OWXX+buu+++aPdQq9VKfHw8HTt2pLCwEICkpCT7Mnr06EFRURGffPIJ7777LgsWLLjotszLy8Pd3d1+KDIzM5PbbrsNX19fVq1axUcffcQHH3zAF198cd7jfHx8qFOnDl5eXvYRZGpqqv1w48XMmjWL4uLi//h7EZHq4rSRVFFREVu3bmXt2rWUlJTw448/MmXKFPbt28evv/6K1Wrl9OnTAGzevJnc3FzeeustMjIy+Pnnn0lISCAzM5Py8nKsVitZWVn07NmTsWPH0qVLFw4dOoSrqyurVq3ihx9+ID09naNHj5KTk0N2djZlZWVMmzaNM2fOsHLlSkaNGsXhw4cJCQmhpKTEXmfjxo1JTU0lNzeXTZs2kZGRQWpqKqmpqXTs2JEjR46wdu1aDh48SO3atfn222/p3bs3Tz31lP0cUkVFBWfPnsXLywuAs2fPUlpais1mIyMjg7lz5/Lxxx+TlpZGRUUF/v7+9mW0bt2arKwsVq9eTUpKCqWlpQBkZGSctz0XLFjAypUr+f7771m8eDH+/v5s2LCBTz75hKVLl5Kbm8vMmTNJTU097zzSvHnzOHLkCHv37uXRRx+lqKiIvLw8pkyZwsmTJ6msrCQzM9Nez7nXTiElIo7gsKaH+pzUn0eTJk1ISUlxdhlikJKSEoKCgvQ5qT8xNT0UEZEaRyElIiLGUkiJiIixHHZ1X4cOHahfvz5TpkyhvLwcd3d3Dhw4QNu2bSkpKeHUqVMEBweTk5NDeXk5DRs2JD09nXr16uHt7c2hQ4cIDQ3F1dWVgwcP0rp1a4qKisjKyqJp06ZkZWUBVZetHz9+nPr16+Pl5WW/b2VlJUeOHKFly5acPXuWvLw8rrnmGk6fPo27uzt+fn4cO3aMwMBA6tSpY6+tvLyc1NRUQkNDyc/Pp7CwkKCgIDIyMvD09KRevXqkpKTQpEkTatWqxf79+wkPD6e0tJSTJ08SEhJCbm4upaWlBAYGcuLECXx8fPDx8bFfqOHm5sZvv/1GmzZtKC4u5vTp0zRr1ozs7GwqKytp0KABaWlp+Pn5YbFYSE5OpmXLlgAcOnSIVq1aUVhYSE5ODk2aNOHMmTO4urraL8Bo2LAhnp6e9mVUVFRw9OhRWrRoQUFBAQUFBTRu3JhTp07h4eGBr68vR48eJSgoCA8PD/s6lZWVkZaWRvPmzcnLy6O4uJhGjRpx8uRJLBYLdevW5ciRI/bPu4mIXC6HXTgBEB4ezv79+y/rOUTk6qMLJ0QXToiISI2jkBIREWMppERExFgKKRERMZbTmx7u3r0bq9VKUFAQTZo0AaquWGvZsiX79u2jqKgIgMjISPbs2QNAcHAwAQEBACQnJ3P69Gmuu+46ABITEwHsV/+lpaXh6+tLq1at2LNnj31aobCwMJKSkgDsV+MdPnwYqLoS8dzcfdddd519olipPrm5uSQnJ+Pu7m5/7aDq9UxLS+PGG2+kdu3a9tvPnDmDl5cXXl5eJCcnU7duXQIDA6moqCA3N5ejR49y7bXX4ubmRnJyMj4+Phw/ftz+2m/duhXAPkfhuSmeOnTogKur3quJmMrpf539+/fHYrEwduxY0tLS2LlzJwMGDKCkpAQXFxfWrVuHxWIhPT2dpKQkLBYL/v7+APzyyy98/vnnFBcXM3z4cPbv38+mTZuorKykX79+bNq0CYvFwtdff01SUhKDBg3CYrFgsVjIyMhgy5YtFBcXM3r0aDZs2GD/XWFhIZMmTcJisdC3b18qKiqcvJVqnl9//ZWEhASOHTvGnDlzADhx4gRff/01gYGB3HvvvefN8L5s2TImT54MwAsvvMD8+fOBqlncDx48yMCBA8nLy+PUqVPcd999vPDCCxQUFDBz5kz279/PK6+8gsViwdPTk507d2KxWEhLS7PPEC8iZjJiiBAeHs6MGTNITk5mxYoVjBs3jl9++YXevXuTmJhIeHg4R44c4eTJk6xbt46QkBDc3d355z//yZtvvom/vz/JyckcO3aMEydOkJiYiJ+fHx4eHoSHhxMWFmbv73Su2V/fvn1JT0+ncePG9hm/z/1u1KhRuLq6Eh4eTrt27cjKyrKP3KT6pKSkUFFRYZ94969//Svz5s3DxcWF66+/nszMTBo3bmy/v8ViYceOHRd9rrZt2/Lzzz/zzTff0KZNGwA2bNhARUUFLVu25NSpU6xbt46GDRvi6+trbw+j11XEbEaEFMDWrVtp0aIFJ06cID09nc2bN9O7d+/z7tOrVy97iw6AevXqkZWVhb+/P0eOHKFTp07k5uYyatQo/vnPf9rvV1paSlRUFJs2bWLixIlA1SHFDh06MHDgQLZs2QJg/11BQYH9sUVFRef1oZLq07t3b/trXFZWRqdOnSgtLaVOnTrs27cPV1dXKisr7YfjRo8eTWxsLMBFX5Mvv/ySoKAgzp49i9Vq5bHHHuPo0aN8/vnntGrVyv76fv/99wwcOND+vYiYy+mH++rUqUNMTAy7d+8mMDCQBx54gGXLltGhQwfg//8z8vT05KWXXiImJoYNGzYAMHPmTIYPH06LFi3o2LEjrq6u9h5OLVu2pLS0lJ49e3LXXXcxbtw4+7JiYmLIysqyN/lzc3PDzc3N/rv9+/ezZcsWfH19GTBgAPXr13fClqnZzm3zc4YPH85DDz1Eo0aNuPXWWxk2bBjZ2dkkJCQA4O7ubu8V1r59ewYOHEhgYCDh4eF07tyZ1q1b07dvX8aMGUPTpk0JCwsjJiaGUaNGMXz4cBISEoiJieGBBx4471zXf2q4KSJmqBEzTthsNn2KvQb5/ehJagbNOCF/6hkntNPXLAooETnHoeekysvLSU5OduQiRcQAZWVlzi5BrlIODSl3d3datWrlyEWKiAFKSkqcXYJcpXRcRUREjKWQEhERYymkRETEWAopERExlkJKRESMpZASERFjKaRERMRYCikRETGWQkpERIylkBIREWMppERExFgKKRERMZZTO/MmJSWxdOlSXn31VSZNmgRAnz59+OKLL3BxcaFjx47Ex8fj7+/P8ePHeeqpp1iwYAElJSX8/e9/58iRI1x77bV88803/Pjjj3h7e9OnTx+mTp1KeHi4vYnh3r17WbRoEQkJCYwfP5527dpx5MgRmjdvTkREhDM3gYiI/BdOHUm9+eabrFu3jtLSUgIDA+nduze7d+/G3d2doUOHsn//ftzd3bnvvvuwWq2MGDGC2NhY5s2bx86dO/n444/5+eefady4MYWFhdx4443UrVsXT09PZs6cyaeffgpAfn4+nTp1okWLFsTExLBo0SL279+vgBIRMZzTQqq8vJxjx47RtWtXUlJSOHv2LACjRo2isrKSkpISXnzxRUpLS8nJycHV1ZVatWrZH3/w4EFsNhvz58+nU6dONG7cmE6dOtnbxwNkZWXZv+/YsSNdunQhOzubiIgIevXq5biVFRGRS+K0w302m42FCxfSrFkz1q1bR79+/YiKigKgd+/e9OjRA4DbbruNHj16sHPnTqZMmcLzzz9PcXExU6dOZcCAAWzcuBEANzc3lixZQrdu3WjVqhXvvPMOL774IgDBwcF8+eWXWK1WAgMDad68OQEBAc5ZcRER+cNcANsfvbPN9ofvelHh4eHs37//sp5DRK4+JSUlBAUFkZ2djYuLi7PLESe41NddV/eJiIixHHq4r7S0lEceecSRixQRkauYQw/3iYjIn5MO94mISI2jkBIREWMppERExFgKKRERMZZCSkREjKWQEhERYymkRETEWAopERExlkJKRESMpZASERFjKaRERMRYCikRETGWQkpERIylkBIREWMppERExFgKKRERMZZCSkREjKWQEhERYymkRETEWAopERExlkJKRESMpZASERFjKaRERMRYCikRETGWQkpERIylkBIREWMppERExFgKKRERMZZCSkREjKWQEhERYymkRETEWAopERExlkJKRESMpZASERFjKaRERMRYCikRETGWQkpERIylkBIREWMppERExFgKKRERMZZCSkREjKWQEhERYymkRETEWAopERExlkJKRESMpZASERFjKaRERMRYCikRETGWQkpERIylkBIREWMppERExFgKKRERMZZCSkREjKWQEhERYymkRETEWAopERExlkJKRESMpZASERFjKaRERMRYCikRETGWQkpERIylkBIREWMppERExFgKKRERMZZCSkREjKWQEhERYymkRETEWAopERExlkJKRESMpZASERFjKaRERMRYCikRETGWQkpERIylkBIREWMppERExFgKKRERMZZCSkREjKWQEhERYymkRETEWAopERExlkJKRESMpZASERFjKaRERMRYCikRETGWQkpERIylkBIREWMppERExFgKKRERMZZCSkREjOUSGBhoc3YRIiIiF6ORlIiIGEshJSIixlJIiYiIsRRSIiJiLIWUiIgYSyElIiLGUkiJiIixFFIiImKs/wfc+j1vINQI8wAAAABJRU5ErkJggg==;" vertex="1" parent="TE7vmhAAbaG0M19s3-n8-66">
          <mxGeometry x="232.5" y="335" width="425" height="554" as="geometry" />
        </mxCell>
      </root>
    </mxGraphModel>
  </diagram>
  <diagram id="b6N7VwOZQ7GCwZy3Ay_R" name="Page-4">
    <mxGraphModel dx="1038" dy="489" grid="1" gridSize="10" guides="1" tooltips="1" connect="1" arrows="1" fold="1" page="1" pageScale="1" pageWidth="827" pageHeight="1169" math="0" shadow="0">
      <root>
        <mxCell id="0" />
        <mxCell id="1" parent="0" />
        <mxCell id="oI6n_4J2I9kROfKdsB66-1" value="" style="strokeWidth=1;shadow=0;dashed=0;align=center;html=1;shape=mxgraph.mockup.containers.browserWindow;rSize=0;strokeColor=#666666;strokeColor2=#008cff;strokeColor3=#c4c4c4;mainText=,;recursiveResize=0;fillColor=#FFFFFF;" vertex="1" parent="1">
          <mxGeometry x="110" y="160" width="990" height="1040" as="geometry" />
        </mxCell>
        <mxCell id="oI6n_4J2I9kROfKdsB66-2" value="" style="strokeWidth=1;shadow=0;dashed=0;align=center;html=1;shape=mxgraph.mockup.containers.anchor;fontSize=17;fontColor=#666666;align=left;" vertex="1" parent="oI6n_4J2I9kROfKdsB66-1">
          <mxGeometry x="60" y="12" width="110" height="26" as="geometry" />
        </mxCell>
        <mxCell id="oI6n_4J2I9kROfKdsB66-3" value="https://www.shipping.com" style="strokeWidth=1;shadow=0;dashed=0;align=center;html=1;shape=mxgraph.mockup.containers.anchor;rSize=0;fontSize=17;fontColor=#666666;align=left;" vertex="1" parent="oI6n_4J2I9kROfKdsB66-1">
          <mxGeometry x="130" y="60" width="250" height="26" as="geometry" />
        </mxCell>
        <mxCell id="oI6n_4J2I9kROfKdsB66-4" value="" style="dashed=0;outlineConnect=0;html=1;align=center;labelPosition=center;verticalLabelPosition=bottom;verticalAlign=top;shape=mxgraph.weblogos.skyrock;fillColor=#009AFF;strokeColor=none;labelBackgroundColor=#FFFFFF;" vertex="1" parent="oI6n_4J2I9kROfKdsB66-1">
          <mxGeometry x="60" y="10" width="30" height="30" as="geometry" />
        </mxCell>
        <mxCell id="oI6n_4J2I9kROfKdsB66-5" value="" style="whiteSpace=wrap;html=1;aspect=fixed;labelBackgroundColor=#FFFFFF;fillColor=#dae8fc;strokeColor=#6c8ebf;gradientColor=#7ea6e0;" vertex="1" parent="oI6n_4J2I9kROfKdsB66-1">
          <mxGeometry x="20" y="150" width="870" height="870" as="geometry" />
        </mxCell>
        <mxCell id="oI6n_4J2I9kROfKdsB66-6" value="&lt;span style=&quot;background-color: rgb(255, 230, 204);&quot;&gt;AS A LEVEL1 MANAGER&lt;/span&gt;" style="text;html=1;strokeColor=#d79b00;fillColor=#ffe6cc;align=center;verticalAlign=middle;whiteSpace=wrap;rounded=0;labelBackgroundColor=#FFFFFF;" vertex="1" parent="oI6n_4J2I9kROfKdsB66-1">
          <mxGeometry x="400" y="230" width="110" height="30" as="geometry" />
        </mxCell>
        <mxCell id="oI6n_4J2I9kROfKdsB66-7" value="" style="shape=ext;double=1;whiteSpace=wrap;html=1;aspect=fixed;labelBackgroundColor=#FFFFFF;fillColor=#d5e8d4;strokeColor=#82b366;gradientColor=#97d077;" vertex="1" parent="oI6n_4J2I9kROfKdsB66-1">
          <mxGeometry x="190" y="260" width="490" height="490" as="geometry" />
        </mxCell>
        <mxCell id="oI6n_4J2I9kROfKdsB66-8" value="verify&amp;nbsp; A PURCHASE REQUEST" style="rounded=1;whiteSpace=wrap;html=1;labelBackgroundColor=#FFFFFF;" vertex="1" parent="oI6n_4J2I9kROfKdsB66-1">
          <mxGeometry x="372.5" y="290" width="145" height="30" as="geometry" />
        </mxCell>
        <mxCell id="oI6n_4J2I9kROfKdsB66-9" value="Purchase request" style="rounded=1;whiteSpace=wrap;html=1;labelBackgroundColor=#FFFFFF;" vertex="1" parent="oI6n_4J2I9kROfKdsB66-1">
          <mxGeometry x="280" y="360" width="120" height="20" as="geometry" />
        </mxCell>
        <mxCell id="oI6n_4J2I9kROfKdsB66-10" value="PR form" style="rounded=1;whiteSpace=wrap;html=1;labelBackgroundColor=#FFFFFF;" vertex="1" parent="oI6n_4J2I9kROfKdsB66-1">
          <mxGeometry x="280" y="410" width="120" height="20" as="geometry" />
        </mxCell>
        <mxCell id="oI6n_4J2I9kROfKdsB66-11" value="cost" style="rounded=1;whiteSpace=wrap;html=1;labelBackgroundColor=#FFFFFF;" vertex="1" parent="oI6n_4J2I9kROfKdsB66-1">
          <mxGeometry x="280" y="460" width="120" height="20" as="geometry" />
        </mxCell>
        <mxCell id="oI6n_4J2I9kROfKdsB66-12" value="benchmark value" style="rounded=1;whiteSpace=wrap;html=1;labelBackgroundColor=#FFFFFF;" vertex="1" parent="oI6n_4J2I9kROfKdsB66-1">
          <mxGeometry x="280" y="510" width="120" height="20" as="geometry" />
        </mxCell>
        <mxCell id="oI6n_4J2I9kROfKdsB66-13" value="" style="verticalLabelPosition=bottom;verticalAlign=top;html=1;shape=mxgraph.basic.patternFillRect;fillStyle=diag;step=5;fillStrokeWidth=0.2;fillStrokeColor=#dddddd;labelBackgroundColor=#FFFFFF;fillColor=#f5f5f5;fontColor=#333333;strokeColor=#666666;" vertex="1" parent="oI6n_4J2I9kROfKdsB66-1">
          <mxGeometry x="460" y="460" width="120" height="20" as="geometry" />
        </mxCell>
        <mxCell id="oI6n_4J2I9kROfKdsB66-14" value="approve" style="labelPosition=center;verticalLabelPosition=middle;align=center;html=1;shape=mxgraph.basic.shaded_button;dx=10;fillColor=#d5e8d4;strokeColor=#82b366;whiteSpace=wrap;labelBackgroundColor=#FFFFFF;" vertex="1" parent="oI6n_4J2I9kROfKdsB66-1">
          <mxGeometry x="315" y="610" width="100" height="40" as="geometry" />
        </mxCell>
        <mxCell id="oI6n_4J2I9kROfKdsB66-15" value="" style="shape=image;html=1;verticalAlign=top;verticalLabelPosition=bottom;labelBackgroundColor=#ffffff;imageAspect=0;aspect=fixed;image=https://cdn3.iconfinder.com/data/icons/essential-rounded/64/Rounded-31-128.png;fillColor=#FFFFFF;" vertex="1" parent="oI6n_4J2I9kROfKdsB66-1">
          <mxGeometry x="610" y="270" width="50" height="50" as="geometry" />
        </mxCell>
        <mxCell id="oI6n_4J2I9kROfKdsB66-16" value="&lt;font face=&quot;Georgia&quot; style=&quot;font-size: 24px;&quot;&gt;&lt;i style=&quot;background-color: rgb(255, 255, 255);&quot;&gt;SHIPPING.COM&lt;/i&gt;&lt;/font&gt;" style="text;html=1;strokeColor=#b85450;fillColor=#f8cecc;align=center;verticalAlign=middle;whiteSpace=wrap;rounded=0;labelBackgroundColor=#FFFFFF;gradientColor=#ea6b66;" vertex="1" parent="oI6n_4J2I9kROfKdsB66-1">
          <mxGeometry x="175" y="180" width="560" height="30" as="geometry" />
        </mxCell>
        <mxCell id="oI6n_4J2I9kROfKdsB66-17" value="PURCHASE REQUEST ID" style="rounded=1;whiteSpace=wrap;html=1;labelBackgroundColor=#FFFFFF;" vertex="1" parent="oI6n_4J2I9kROfKdsB66-1">
          <mxGeometry x="265" y="550" width="150" height="20" as="geometry" />
        </mxCell>
        <mxCell id="oI6n_4J2I9kROfKdsB66-18" value="SYSTEM GENERATED" style="rounded=1;whiteSpace=wrap;html=1;labelBackgroundColor=#FFFFFF;" vertex="1" parent="oI6n_4J2I9kROfKdsB66-1">
          <mxGeometry x="450" y="550" width="140" height="20" as="geometry" />
        </mxCell>
        <mxCell id="oI6n_4J2I9kROfKdsB66-19" value="system generated" style="rounded=1;whiteSpace=wrap;html=1;labelBackgroundColor=#FFFFFF;fillColor=#f5f5f5;gradientColor=#b3b3b3;strokeColor=#666666;" vertex="1" parent="oI6n_4J2I9kROfKdsB66-1">
          <mxGeometry x="460" y="360" width="120" height="20" as="geometry" />
        </mxCell>
        <mxCell id="oI6n_4J2I9kROfKdsB66-20" value="select the form" style="rounded=1;whiteSpace=wrap;html=1;labelBackgroundColor=#FFFFFF;fillColor=#f5f5f5;gradientColor=#b3b3b3;strokeColor=#666666;" vertex="1" parent="oI6n_4J2I9kROfKdsB66-1">
          <mxGeometry x="460" y="410" width="120" height="20" as="geometry" />
        </mxCell>
        <mxCell id="oI6n_4J2I9kROfKdsB66-21" value="verify" style="rounded=1;whiteSpace=wrap;html=1;labelBackgroundColor=#FFFFFF;" vertex="1" parent="oI6n_4J2I9kROfKdsB66-1">
          <mxGeometry x="460" y="510" width="120" height="20" as="geometry" />
        </mxCell>
        <mxCell id="oI6n_4J2I9kROfKdsB66-22" value="&lt;span style=&quot;background-color: rgb(229, 67, 67);&quot;&gt;reject&lt;/span&gt;" style="labelPosition=center;verticalLabelPosition=middle;align=center;html=1;shape=mxgraph.basic.shaded_button;dx=10;fillColor=#e51400;strokeColor=#B20000;whiteSpace=wrap;labelBackgroundColor=#FFFFFF;fontColor=#ffffff;" vertex="1" parent="oI6n_4J2I9kROfKdsB66-1">
          <mxGeometry x="460" y="610" width="100" height="40" as="geometry" />
        </mxCell>
      </root>
    </mxGraphModel>
  </diagram>
  <diagram id="5DbjyfXBIhCJPiOtjfel" name="Page-5">
    <mxGraphModel dx="1038" dy="489" grid="1" gridSize="10" guides="1" tooltips="1" connect="1" arrows="1" fold="1" page="1" pageScale="1" pageWidth="827" pageHeight="1169" math="0" shadow="0">
      <root>
        <mxCell id="0" />
        <mxCell id="1" parent="0" />
        <mxCell id="sVp9Wxf7gurMfqFjWB5H-1" value="" style="strokeWidth=1;shadow=0;dashed=0;align=center;html=1;shape=mxgraph.mockup.containers.browserWindow;rSize=0;strokeColor=#666666;strokeColor2=#008cff;strokeColor3=#c4c4c4;mainText=,;recursiveResize=0;fillColor=#FFFFFF;" vertex="1" parent="1">
          <mxGeometry x="110" y="160" width="920" height="1040" as="geometry" />
        </mxCell>
        <mxCell id="sVp9Wxf7gurMfqFjWB5H-2" value="" style="strokeWidth=1;shadow=0;dashed=0;align=center;html=1;shape=mxgraph.mockup.containers.anchor;fontSize=17;fontColor=#666666;align=left;" vertex="1" parent="sVp9Wxf7gurMfqFjWB5H-1">
          <mxGeometry x="60" y="12" width="110" height="26" as="geometry" />
        </mxCell>
        <mxCell id="sVp9Wxf7gurMfqFjWB5H-3" value="https://www.shipping.com" style="strokeWidth=1;shadow=0;dashed=0;align=center;html=1;shape=mxgraph.mockup.containers.anchor;rSize=0;fontSize=17;fontColor=#666666;align=left;" vertex="1" parent="sVp9Wxf7gurMfqFjWB5H-1">
          <mxGeometry x="130" y="60" width="250" height="26" as="geometry" />
        </mxCell>
        <mxCell id="sVp9Wxf7gurMfqFjWB5H-4" value="" style="dashed=0;outlineConnect=0;html=1;align=center;labelPosition=center;verticalLabelPosition=bottom;verticalAlign=top;shape=mxgraph.weblogos.skyrock;fillColor=#009AFF;strokeColor=none;labelBackgroundColor=#FFFFFF;" vertex="1" parent="sVp9Wxf7gurMfqFjWB5H-1">
          <mxGeometry x="60" y="10" width="30" height="30" as="geometry" />
        </mxCell>
        <mxCell id="sVp9Wxf7gurMfqFjWB5H-5" value="" style="whiteSpace=wrap;html=1;aspect=fixed;labelBackgroundColor=#FFFFFF;fillColor=#f8cecc;strokeColor=#b85450;gradientColor=#ea6b66;" vertex="1" parent="sVp9Wxf7gurMfqFjWB5H-1">
          <mxGeometry x="20" y="150" width="870" height="870" as="geometry" />
        </mxCell>
        <mxCell id="sVp9Wxf7gurMfqFjWB5H-6" value="&lt;span style=&quot;background-color: rgb(255, 230, 204);&quot;&gt;AS A LEVEL 2 MANAGER&lt;/span&gt;" style="text;html=1;strokeColor=#d79b00;fillColor=#ffe6cc;align=center;verticalAlign=middle;whiteSpace=wrap;rounded=0;labelBackgroundColor=#FFFFFF;" vertex="1" parent="sVp9Wxf7gurMfqFjWB5H-1">
          <mxGeometry x="400" y="230" width="110" height="30" as="geometry" />
        </mxCell>
        <mxCell id="sVp9Wxf7gurMfqFjWB5H-7" value="" style="shape=ext;double=1;whiteSpace=wrap;html=1;aspect=fixed;labelBackgroundColor=#FFFFFF;fillColor=#fff2cc;strokeColor=#d6b656;gradientColor=#ffd966;" vertex="1" parent="sVp9Wxf7gurMfqFjWB5H-1">
          <mxGeometry x="200" y="275" width="490" height="490" as="geometry" />
        </mxCell>
        <mxCell id="sVp9Wxf7gurMfqFjWB5H-8" value="verify A PURCHASE REQUEST" style="rounded=1;whiteSpace=wrap;html=1;labelBackgroundColor=#FFFFFF;" vertex="1" parent="sVp9Wxf7gurMfqFjWB5H-1">
          <mxGeometry x="372.5" y="290" width="145" height="30" as="geometry" />
        </mxCell>
        <mxCell id="sVp9Wxf7gurMfqFjWB5H-9" value="Purchase request" style="rounded=1;whiteSpace=wrap;html=1;labelBackgroundColor=#FFFFFF;" vertex="1" parent="sVp9Wxf7gurMfqFjWB5H-1">
          <mxGeometry x="280" y="360" width="120" height="20" as="geometry" />
        </mxCell>
        <mxCell id="sVp9Wxf7gurMfqFjWB5H-10" value="PR form" style="rounded=1;whiteSpace=wrap;html=1;labelBackgroundColor=#FFFFFF;" vertex="1" parent="sVp9Wxf7gurMfqFjWB5H-1">
          <mxGeometry x="280" y="410" width="120" height="20" as="geometry" />
        </mxCell>
        <mxCell id="sVp9Wxf7gurMfqFjWB5H-11" value="cost" style="rounded=1;whiteSpace=wrap;html=1;labelBackgroundColor=#FFFFFF;" vertex="1" parent="sVp9Wxf7gurMfqFjWB5H-1">
          <mxGeometry x="280" y="460" width="120" height="20" as="geometry" />
        </mxCell>
        <mxCell id="sVp9Wxf7gurMfqFjWB5H-12" value="benchmark value" style="rounded=1;whiteSpace=wrap;html=1;labelBackgroundColor=#FFFFFF;" vertex="1" parent="sVp9Wxf7gurMfqFjWB5H-1">
          <mxGeometry x="280" y="510" width="120" height="20" as="geometry" />
        </mxCell>
        <mxCell id="sVp9Wxf7gurMfqFjWB5H-13" value="" style="verticalLabelPosition=bottom;verticalAlign=top;html=1;shape=mxgraph.basic.patternFillRect;fillStyle=diag;step=5;fillStrokeWidth=0.2;fillStrokeColor=#dddddd;labelBackgroundColor=#FFFFFF;fillColor=#f5f5f5;fontColor=#333333;strokeColor=#666666;" vertex="1" parent="sVp9Wxf7gurMfqFjWB5H-1">
          <mxGeometry x="460" y="460" width="120" height="20" as="geometry" />
        </mxCell>
        <mxCell id="sVp9Wxf7gurMfqFjWB5H-14" value="approve" style="labelPosition=center;verticalLabelPosition=middle;align=center;html=1;shape=mxgraph.basic.shaded_button;dx=10;fillColor=#d5e8d4;strokeColor=#82b366;whiteSpace=wrap;labelBackgroundColor=#FFFFFF;" vertex="1" parent="sVp9Wxf7gurMfqFjWB5H-1">
          <mxGeometry x="315" y="610" width="100" height="40" as="geometry" />
        </mxCell>
        <mxCell id="sVp9Wxf7gurMfqFjWB5H-15" value="" style="shape=image;html=1;verticalAlign=top;verticalLabelPosition=bottom;labelBackgroundColor=#ffffff;imageAspect=0;aspect=fixed;image=https://cdn3.iconfinder.com/data/icons/essential-rounded/64/Rounded-31-128.png;fillColor=#FFFFFF;" vertex="1" parent="sVp9Wxf7gurMfqFjWB5H-1">
          <mxGeometry x="620" y="290" width="50" height="50" as="geometry" />
        </mxCell>
        <mxCell id="sVp9Wxf7gurMfqFjWB5H-16" value="&lt;font face=&quot;Georgia&quot; style=&quot;font-size: 24px;&quot;&gt;&lt;i style=&quot;background-color: rgb(255, 255, 255);&quot;&gt;SHIPPING.COM&lt;/i&gt;&lt;/font&gt;" style="text;html=1;strokeColor=#b85450;fillColor=#f8cecc;align=center;verticalAlign=middle;whiteSpace=wrap;rounded=0;labelBackgroundColor=#FFFFFF;gradientColor=#ea6b66;" vertex="1" parent="sVp9Wxf7gurMfqFjWB5H-1">
          <mxGeometry x="175" y="180" width="560" height="30" as="geometry" />
        </mxCell>
        <mxCell id="sVp9Wxf7gurMfqFjWB5H-17" value="PURCHASE REQUEST ID" style="rounded=1;whiteSpace=wrap;html=1;labelBackgroundColor=#FFFFFF;" vertex="1" parent="sVp9Wxf7gurMfqFjWB5H-1">
          <mxGeometry x="265" y="550" width="150" height="20" as="geometry" />
        </mxCell>
        <mxCell id="sVp9Wxf7gurMfqFjWB5H-18" value="SYSTEM GENERATED" style="rounded=1;whiteSpace=wrap;html=1;labelBackgroundColor=#FFFFFF;" vertex="1" parent="sVp9Wxf7gurMfqFjWB5H-1">
          <mxGeometry x="450" y="550" width="140" height="20" as="geometry" />
        </mxCell>
        <mxCell id="sVp9Wxf7gurMfqFjWB5H-19" value="system generated" style="rounded=1;whiteSpace=wrap;html=1;labelBackgroundColor=#FFFFFF;fillColor=#f5f5f5;gradientColor=#b3b3b3;strokeColor=#666666;" vertex="1" parent="sVp9Wxf7gurMfqFjWB5H-1">
          <mxGeometry x="460" y="360" width="120" height="20" as="geometry" />
        </mxCell>
        <mxCell id="sVp9Wxf7gurMfqFjWB5H-20" value="verify" style="rounded=1;whiteSpace=wrap;html=1;labelBackgroundColor=#FFFFFF;fillColor=#f5f5f5;gradientColor=#b3b3b3;strokeColor=#666666;" vertex="1" parent="sVp9Wxf7gurMfqFjWB5H-1">
          <mxGeometry x="460" y="410" width="120" height="20" as="geometry" />
        </mxCell>
        <mxCell id="sVp9Wxf7gurMfqFjWB5H-21" value="verify" style="rounded=1;whiteSpace=wrap;html=1;labelBackgroundColor=#FFFFFF;" vertex="1" parent="sVp9Wxf7gurMfqFjWB5H-1">
          <mxGeometry x="460" y="510" width="120" height="20" as="geometry" />
        </mxCell>
        <mxCell id="sVp9Wxf7gurMfqFjWB5H-22" value="&lt;span style=&quot;background-color: rgb(204, 0, 0);&quot;&gt;reject&lt;/span&gt;" style="labelPosition=center;verticalLabelPosition=middle;align=center;html=1;shape=mxgraph.basic.shaded_button;dx=10;fillColor=#e51400;strokeColor=#B20000;whiteSpace=wrap;labelBackgroundColor=#FFFFFF;fontColor=#ffffff;" vertex="1" parent="sVp9Wxf7gurMfqFjWB5H-1">
          <mxGeometry x="460" y="610" width="100" height="40" as="geometry" />
        </mxCell>
      </root>
    </mxGraphModel>
  </diagram>
  <diagram id="G1p97pFsz1FLvQXezFZO" name="Page-6">
    <mxGraphModel dx="1038" dy="489" grid="1" gridSize="10" guides="1" tooltips="1" connect="1" arrows="1" fold="1" page="1" pageScale="1" pageWidth="827" pageHeight="1169" math="0" shadow="0">
      <root>
        <mxCell id="0" />
        <mxCell id="1" parent="0" />
      </root>
    </mxGraphModel>
  </diagram>
</mxfile>
